<svg width="112" height="114" viewBox="0 0 112 114" fill="none" xmlns="http://www.w3.org/2000/svg">
<path d="M71.4636 113.969H78.4043C80.8753 113.969 82.8855 111.966 82.8855 109.506V95.9733C93.9039 88.8104 100.607 77.6941 101.091 65.8963H105.92C109.272 65.8963 112 63.1763 112 59.8319C112 56.4874 109.272 53.7674 105.92 53.7674H105.203C104.449 53.7674 103.837 54.3793 103.837 55.1336C103.837 55.8879 104.449 56.4999 105.203 56.4999H105.92C107.765 56.4999 109.268 57.9942 109.268 59.8319C109.268 61.6695 107.765 63.1639 105.92 63.1639H101.089C100.599 51.044 93.6134 39.8061 82.1156 32.6489C83.8754 29.4567 84.8352 25.8226 84.8352 22.0236C84.8352 9.88035 74.9637 0 62.8294 0C50.6854 0 40.8059 9.88037 40.8059 22.0236C40.8059 23.6166 40.9963 25.1842 41.3294 26.7139C39.7295 27.126 38.1541 27.5885 36.6458 28.1379L26.7352 18.7076C25.3404 17.3822 23.3605 17.0104 21.5708 17.7434C19.775 18.4763 18.616 20.1361 18.5457 22.0716L17.8715 40.5906C15.34 43.4227 13.2889 46.4932 11.7625 49.738H5.51924C2.47633 49.738 0 52.2144 0 55.2564V73.8198C0 76.853 2.47633 79.3204 5.51924 79.3204H11.7483C14.8801 85.9257 20.0018 91.6575 26.6329 95.9733V109.506C26.6329 111.966 28.6431 113.969 31.1141 113.969H38.0547C40.5257 113.969 42.5359 111.966 42.5359 109.506V102.669C50.5261 104.507 58.8775 104.523 67.0002 102.668V109.506C67.0002 111.966 69.0025 113.969 71.4636 113.969ZM62.8294 2.73247C73.457 2.73247 82.1027 11.3871 82.1027 22.0235C82.1027 28.4776 78.9486 34.3927 73.6295 37.9791C65.5827 34.8068 56.0527 33.7048 48.1841 34.5741C45.183 31.0749 43.5384 26.6453 43.5384 22.0235C43.5384 11.3871 52.1921 2.73247 62.8294 2.73247ZM41.5183 99.6041C41.1101 99.4974 40.6724 99.5846 40.3362 99.8443C40 100.102 39.8034 100.503 39.8034 100.926V109.506C39.8034 110.443 39.0029 111.237 38.0547 111.237H31.1141C30.1659 111.237 29.3654 110.443 29.3654 109.506V95.2243C29.3654 94.7547 29.1234 94.3171 28.7258 94.068C21.972 89.827 16.8352 84.0631 13.8733 77.3991C13.6535 76.9063 13.1643 76.5879 12.6244 76.5879H5.51924C3.98222 76.5879 2.73249 75.3462 2.73249 73.8198V55.2564C2.73249 53.7211 3.98222 52.4705 5.51924 52.4705H12.6422C13.1839 52.4705 13.6749 52.1503 13.8928 51.654C15.3907 48.2455 17.5157 45.0238 20.2081 42.0796C20.4296 41.843 20.5711 41.5299 20.5835 41.1883L21.2764 22.1712C21.3075 21.3084 21.8039 20.5986 22.6035 20.2731C23.3978 19.9475 24.2402 20.1041 24.853 20.6876L35.3818 30.7067C35.7652 31.0714 36.3193 31.1763 36.8148 30.9931C38.4935 30.347 40.2679 29.8099 42.0789 29.3451C42.7888 31.3554 43.7843 33.2586 45.0563 34.9979C43.8893 35.1788 42.7245 35.3726 41.5797 35.6238C40.8423 35.7856 40.3763 36.5132 40.5381 37.2515C40.6991 37.988 41.4294 38.4505 42.165 38.2922C55.0977 35.4511 68.3696 37.5756 78.3927 43.2929C79.0357 43.6626 79.8784 43.447 80.2562 42.7823C80.6307 42.1276 80.4021 41.2933 79.7465 40.9197C78.6938 40.3193 77.6098 39.7597 76.5009 39.2379C78.0867 37.9852 79.4847 36.5507 80.6482 34.9533C91.7832 41.8755 98.406 52.8391 98.406 64.5284C98.406 76.113 91.8221 87.155 80.7934 94.0663C80.3949 94.3171 80.153 94.7547 80.153 95.2244V109.506C80.153 110.461 79.3685 111.237 78.4043 111.237H71.4636C70.5092 111.237 69.7327 110.461 69.7327 109.506V100.926C69.7327 100.503 69.5361 100.102 69.2017 99.8443C68.8663 99.5846 68.4269 99.4974 68.0204 99.6041C59.2395 101.901 50.125 101.876 41.5183 99.6041Z" fill="#FFD000"/>
</svg>
