<svg xmlns="http://www.w3.org/2000/svg" width="30" height="51" viewBox="0 0 30 51">
    <g fill="none" fill-rule="evenodd">
        <path fill="#50E3C2" d="M5 17h25v34H5z"/>
        <g fill="#616161" fill-rule="nonzero">
            <path d="M26.625 13.361H24.15V1.34a.787.787 0 0 0-.4-.69.737.737 0 0 0-.778.038l-1.197.824L19.77.132a.737.737 0 0 0-.84 0l-2.005 1.38L14.92.132a.737.737 0 0 0-.84 0l-2.005 1.38L10.07.132a.737.737 0 0 0-.84 0l-2.005 1.38L6.028.688A.737.737 0 0 0 5.25.65a.787.787 0 0 0-.4.69v12.022H2.375c-1.31 0-2.375 1.1-2.375 2.453v31.733C0 48.9 1.065 50 2.375 50h24.25C27.935 50 29 48.9 29 47.547V15.814c0-1.352-1.065-2.453-2.375-2.453zM6.365 2.802l.44.302a.737.737 0 0 0 .84 0l2.005-1.38 2.005 1.38a.737.737 0 0 0 .84 0l2.005-1.38 2.005 1.38a.737.737 0 0 0 .84 0l2.005-1.38 2.005 1.38a.737.737 0 0 0 .84 0l.44-.302v13.9H6.364v-13.9zm21.12 44.745c0 .49-.386.887-.86.887H2.375c-.474 0-.86-.398-.86-.887V15.814c0-.49.386-.887.86-.887H4.85V16.7h-.859a.77.77 0 0 0-.758.783c0 .433.34.783.758.783H25.01a.77.77 0 0 0 .758-.783.77.77 0 0 0-.758-.783h-.86v-1.774h2.476c.474 0 .86.398.86.887v31.733z"/>
            <path d="M24.401 20H4.6C3.717 20 3 20.686 3 21.528v3.944C3 26.314 3.717 27 4.599 27H24.4c.882 0 1.599-.686 1.599-1.528v-3.944c0-.842-.717-1.528-1.599-1.528zm.052 5.472a.05.05 0 0 1-.052.049H4.6a.05.05 0 0 1-.052-.05v-3.943a.05.05 0 0 1 .052-.05H24.4a.05.05 0 0 1 .052.05v3.944zM8.278 29H4.722C3.772 29 3 29.74 3 30.649v1.702C3 33.261 3.773 34 4.722 34h3.556c.95 0 1.722-.74 1.722-1.649v-1.702C10 29.739 9.227 29 8.278 29zm.055 3.351c0 .03-.025.053-.055.053H4.722a.054.054 0 0 1-.055-.053v-1.702c0-.03.025-.053.055-.053h3.556c.03 0 .055.024.055.053v1.702zM24.278 29h-3.556c-.95 0-1.722.74-1.722 1.649v1.702c0 .91.773 1.649 1.722 1.649h3.556c.95 0 1.722-.74 1.722-1.649v-1.702c0-.91-.773-1.649-1.722-1.649zm.055 3.351c0 .03-.025.053-.055.053h-3.556a.054.054 0 0 1-.055-.053v-1.702c0-.03.025-.053.055-.053h3.556c.03 0 .055.024.055.053v1.702zM16.278 29h-3.556c-.95 0-1.722.74-1.722 1.649v1.702c0 .91.773 1.649 1.722 1.649h3.556c.95 0 1.722-.74 1.722-1.649v-1.702c0-.91-.773-1.649-1.722-1.649zm.055 3.351c0 .03-.024.053-.055.053h-3.556a.054.054 0 0 1-.055-.053v-1.702c0-.03.025-.053.055-.053h3.556c.03 0 .055.024.055.053v1.702zM8.278 35H4.722C3.772 35 3 35.74 3 36.649v1.702C3 39.261 3.773 40 4.722 40h3.556c.95 0 1.722-.74 1.722-1.649v-1.702C10 35.739 9.227 35 8.278 35zm.055 3.351c0 .03-.025.053-.055.053H4.722a.054.054 0 0 1-.055-.053v-1.702c0-.03.025-.053.055-.053h3.556c.03 0 .055.024.055.053v1.702zM24.278 35h-3.556c-.95 0-1.722.74-1.722 1.649v1.702c0 .91.773 1.649 1.722 1.649h3.556c.95 0 1.722-.74 1.722-1.649v-1.702c0-.91-.773-1.649-1.722-1.649zm.055 3.351c0 .03-.025.053-.055.053h-3.556a.054.054 0 0 1-.055-.053v-1.702c0-.03.025-.053.055-.053h3.556c.03 0 .055.024.055.053v1.702zM16.278 35h-3.556c-.95 0-1.722.74-1.722 1.649v1.702c0 .91.773 1.649 1.722 1.649h3.556c.95 0 1.722-.74 1.722-1.649v-1.702c0-.91-.773-1.649-1.722-1.649zm.055 3.351c0 .03-.024.053-.055.053h-3.556a.054.054 0 0 1-.055-.053v-1.702c0-.03.025-.053.055-.053h3.556c.03 0 .055.024.055.053v1.702zM8.278 41H4.722C3.772 41 3 41.74 3 42.649v1.702C3 45.261 3.773 46 4.722 46h3.556c.95 0 1.722-.74 1.722-1.649v-1.702C10 41.739 9.227 41 8.278 41zm.055 3.351c0 .03-.025.053-.055.053H4.722a.054.054 0 0 1-.055-.053v-1.702c0-.03.025-.053.055-.053h3.556c.03 0 .055.024.055.053v1.702zM24.278 41h-3.556c-.95 0-1.722.74-1.722 1.649v1.702c0 .91.773 1.649 1.722 1.649h3.556c.95 0 1.722-.74 1.722-1.649v-1.702c0-.91-.773-1.649-1.722-1.649zm.055 3.351c0 .03-.025.053-.055.053h-3.556a.054.054 0 0 1-.055-.053v-1.702c0-.03.025-.053.055-.053h3.556c.03 0 .055.024.055.053v1.702zM16.278 41h-3.556c-.95 0-1.722.74-1.722 1.649v1.702c0 .91.773 1.649 1.722 1.649h3.556c.95 0 1.722-.74 1.722-1.649v-1.702c0-.91-.773-1.649-1.722-1.649zm.055 3.351c0 .03-.024.053-.055.053h-3.556a.054.054 0 0 1-.055-.053v-1.702c0-.03.025-.053.055-.053h3.556c.03 0 .055.024.055.053v1.702zM17.167 6h-5.334c-.46 0-.833.448-.833 1s.373 1 .833 1h5.334c.46 0 .833-.448.833-1s-.373-1-.833-1zM10.274 13H8.726C8.325 13 8 13.448 8 14s.325 1 .726 1h1.548c.401 0 .726-.448.726-1s-.325-1-.726-1zM20.274 13h-1.548c-.401 0-.726.448-.726 1s.325 1 .726 1h1.548c.401 0 .726-.448.726-1s-.325-1-.726-1zM15.274 13h-1.548c-.401 0-.726.448-.726 1s.325 1 .726 1h1.548c.401 0 .726-.448.726-1s-.325-1-.726-1z"/>
        </g>
    </g>
</svg>
