<svg xmlns="http://www.w3.org/2000/svg" xmlns:xlink="http://www.w3.org/1999/xlink" width="46" height="49" viewBox="0 0 46 49">
    <defs>
        <path id="a" d="M0 .08c5.167-.107 9.023-.107 11.57 0 2.547.108 3.746.32 3.596.64L50 .08V50H0V.08z"/>
    </defs>
    <g fill="none" fill-rule="evenodd">
        <g transform="translate(10 9.5)">
            <circle cx="18.087" cy="18.587" r="17.913" fill="#50E3C2"/>
            <path fill="#616161" fill-rule="nonzero" d="M18.003 14.866V9.853c1.7.123 2.332.914 2.914.914.729 0 1.069-.939 1.069-1.408 0-1.21-2.331-1.729-3.983-1.778v-.667c0-.296-.364-.568-.728-.568-.413 0-.705.272-.705.568v.716c-2.307.247-4.614 1.482-4.614 4.594 0 3.16 2.429 4.05 4.614 4.84v5.803c-2.477-.197-3.132-1.926-3.934-1.926-.607 0-1.117.815-1.117 1.408 0 1.21 2.04 2.864 5.051 2.914v.765c0 .296.292.568.705.568.364 0 .728-.271.728-.568v-.84c2.623-.37 4.42-2.049 4.42-5.087 0-3.358-2.307-4.445-4.42-5.235zm-1.287-.47c-1.287-.493-2.331-1.012-2.331-2.42 0-1.283.971-1.9 2.331-2.074v4.495zm1.141 8.422v-5.21c1.19.518 2.138 1.21 2.137 2.765 0 1.408-.825 2.198-2.137 2.445z"/>
        </g>
        <g transform="translate(-2)">
            <mask id="b" fill="#fff">
                <use xlink:href="#a"/>
            </mask>
            <g mask="url(#b)">
                <g stroke="#616161" stroke-linecap="round" stroke-width="1.5">
                    <path d="M34.298 35.3l10.121 1.967M42.907 47.344l1.943-9.993"/>
                </g>
                <path fill="#616161" d="M44.755 39.78c.4-1.053.982-2.493.234-2.542-1.374-.09-2.683.128-4.447 0l-.157-.012c-2.203 1.65-4.747 2.988-7.512 4.062-3.676 1.428-6.51 1.74-10.091 1.045C11.015 40.045 3.355 28.517 5.675 16.584 7.995 4.652 20.609-2.34 32.376-.052c.871.169 1.855.496 2.897.964.171.009.342.018.513.029a24.524 24.524 0 0 0-4.6-1.37C17.949-3.002 5.13 5.65 2.555 18.896c-2.574 13.246 6.07 26.07 19.308 28.643 3.468.675 6.722.713 9.955-.034 4.98-1.15 9.527-3.885 12.938-7.724z"/>
            </g>
        </g>
    </g>
</svg>
