<svg xmlns="http://www.w3.org/2000/svg" width="60" height="60" viewBox="0 0 60 60">
    <g fill="none" fill-rule="evenodd">
        <path fill="#A4CD39" d="M35.3 11.031H24.584a1.26 1.26 0 0 1-1.261-1.26V2.205c0-.696.564-1.26 1.26-1.26H35.3c.696 0 1.26.564 1.26 1.26V9.77a1.26 1.26 0 0 1-1.26 1.261z"/>
        <path fill="#C2E565" fill-rule="nonzero" d="M12.292 11.031H2.206a1.26 1.26 0 0 1-1.26-1.26V2.205c0-.696.564-1.26 1.26-1.26h10.086c.696 0 1.26.564 1.26 1.26V9.77a1.26 1.26 0 0 1-1.26 1.261zm46.646-1.26V2.205a1.26 1.26 0 0 0-1.261-1.26H47.59a1.26 1.26 0 0 0-1.26 1.26V9.77c0 .697.564 1.261 1.26 1.261h10.086a1.26 1.26 0 0 0 1.26-1.26z"/>
        <path fill="#75DBE9" d="M24.584 48.852h10.715c.697 0 1.261.564 1.261 1.26v7.565a1.26 1.26 0 0 1-1.26 1.26H24.583a1.26 1.26 0 0 1-1.261-1.26v-7.564c0-.697.564-1.261 1.26-1.261z"/>
        <path fill="#4DB4D4" fill-rule="nonzero" d="M47.591 48.852h10.086c.696 0 1.26.564 1.26 1.26v7.565a1.26 1.26 0 0 1-1.26 1.26H47.59a1.26 1.26 0 0 1-1.26-1.26v-7.564c0-.697.564-1.261 1.26-1.261zM.945 50.112v7.565c0 .696.565 1.26 1.261 1.26h10.086a1.26 1.26 0 0 0 1.26-1.26v-7.564a1.26 1.26 0 0 0-1.26-1.261H2.206a1.26 1.26 0 0 0-1.26 1.26z"/>
        <path fill="#F8C14E" d="M38.766 37.506h-17.65a2.521 2.521 0 0 1-2.52-2.522V24.9a2.521 2.521 0 0 1 2.52-2.522h17.65a2.521 2.521 0 0 1 2.522 2.522v10.085a2.521 2.521 0 0 1-2.522 2.522z"/>
        <path fill="#000" fill-rule="nonzero" d="M51.373 17.02c1.217 0 2.207-.99 2.207-2.207v-2.836h4.097c1.216 0 2.206-.99 2.206-2.207V2.206C59.883.99 58.893 0 57.677 0H47.59c-1.216 0-2.206.99-2.206 2.206V9.77c0 1.217.99 2.207 2.206 2.207h4.098v2.836a.316.316 0 0 1-.316.315H30.887v-3.151h4.412c1.217 0 2.207-.99 2.207-2.207V2.206C37.506.99 36.516 0 35.3 0H24.584c-1.217 0-2.207.99-2.207 2.206V9.77c0 1.217.99 2.207 2.207 2.207h4.412v3.151H8.51a.316.316 0 0 1-.315-.315v-2.836h4.097c1.216 0 2.206-.99 2.206-2.207V2.206C14.498.99 13.508 0 12.292 0H2.206C.99 0 0 .99 0 2.206V9.77c0 1.217.99 2.207 2.206 2.207h4.098v2.836c0 1.217.99 2.206 2.206 2.206h20.486v4.413h-7.88a3.47 3.47 0 0 0-3.466 3.467v10.085a3.47 3.47 0 0 0 3.467 3.467h7.879v4.413H8.51c-1.217 0-2.206.99-2.206 2.206v2.836H2.206C.99 47.906 0 48.896 0 50.113v7.564c0 1.216.99 2.206 2.206 2.206h10.086c1.216 0 2.206-.99 2.206-2.206v-7.564c0-1.217-.99-2.207-2.206-2.207H8.195V45.07c0-.174.14-.315.315-.315h20.486v3.151h-4.412c-1.217 0-2.207.99-2.207 2.207v7.564c0 1.216.99 2.206 2.207 2.206H35.3c1.216 0 2.206-.99 2.206-2.206v-7.564c0-1.217-.99-2.207-2.206-2.207h-4.413v-3.151h20.486c.174 0 .316.141.316.315v2.836H47.59c-1.216 0-2.206.99-2.206 2.207v7.564c0 1.216.99 2.206 2.206 2.206h10.086c1.216 0 2.206-.99 2.206-2.206v-7.564c0-1.217-.99-2.207-2.206-2.207H53.58V45.07c0-1.217-.99-2.206-2.207-2.206H30.887V38.45h7.88a3.47 3.47 0 0 0 3.466-3.467V24.9a3.47 3.47 0 0 0-3.467-3.467h-7.879v-4.413h20.486zm-4.097-7.25V2.206c0-.173.141-.315.315-.315h10.086c.174 0 .315.141.315.315V9.77a.316.316 0 0 1-.315.316H47.591a.316.316 0 0 1-.315-.316zm-23.008 0V2.206c0-.173.142-.315.316-.315H35.3c.173 0 .315.141.315.315V9.77a.316.316 0 0 1-.315.316H24.584a.316.316 0 0 1-.316-.316zm-22.377 0V2.206c0-.173.141-.315.315-.315h10.086c.174 0 .315.141.315.315V9.77a.316.316 0 0 1-.315.316H2.206a.316.316 0 0 1-.315-.316zm10.716 40.343v7.564a.316.316 0 0 1-.315.315H2.206a.316.316 0 0 1-.315-.315v-7.564c0-.174.141-.316.315-.316h10.086c.174 0 .315.142.315.316zm23.008 0v7.564a.316.316 0 0 1-.316.315H24.584a.316.316 0 0 1-.316-.315v-7.564c0-.174.142-.316.316-.316h10.715c.174 0 .316.142.316.316zm22.377 0v7.564a.316.316 0 0 1-.315.315H47.59a.316.316 0 0 1-.315-.315v-7.564c0-.174.141-.316.315-.316h10.086c.174 0 .315.142.315.316zm-17.65-25.214v10.085c0 .87-.707 1.576-1.576 1.576h-17.65a1.578 1.578 0 0 1-1.575-1.576V24.9c0-.87.707-1.576 1.576-1.576h17.65c.868 0 1.575.707 1.575 1.576zM24.9 27.105h10.085a.945.945 0 1 1 0 1.89H24.9a.945.945 0 1 1 0-1.89zm9.77 4.728a.945.945 0 0 1-.945.945h-7.565a.945.945 0 1 1 0-1.891h7.565c.522 0 .945.423.945.946z"/>
    </g>
</svg>
