<svg xmlns="http://www.w3.org/2000/svg" width="60" height="60" viewBox="0 0 60 60">
    <g fill="none" fill-rule="evenodd">
        <path fill="#75DBE9" d="M30.508 17.227l-5.244-5.245V5.86a4.688 4.688 0 0 0-4.688-4.687H5.86a4.688 4.688 0 0 0-4.687 4.687v10.313a4.688 4.688 0 0 0 4.687 4.687h14.717a4.688 4.688 0 0 0 4.567-3.632h5.365z"/>
        <path fill="#C2E565" d="M29.492 42.773l5.244 5.245v6.123a4.688 4.688 0 0 0 4.688 4.687H54.14a4.688 4.688 0 0 0 4.687-4.687V43.828a4.688 4.688 0 0 0-4.687-4.687H39.424a4.688 4.688 0 0 0-4.567 3.632h-5.365z"/>
        <path fill="#F8C14E" d="M20.306 44.112H10.88c-5.362 0-9.71 4.347-9.71 9.71v5.006h28.844v-5.007c0-5.362-4.347-9.709-9.71-9.709z"/>
        <path fill="#FFF" d="M20.973 44.112l-5.38 5.38-5.38-5.38z"/>
        <path fill="#F2754F" d="M14.079 27.199h7.86v3.9a3.663 3.663 0 0 1-3.663 3.664H9.248V32.03a4.83 4.83 0 0 1 4.83-4.831z"/>
        <path fill="#FFCDAC" d="M21.939 34.763v3.004a6.345 6.345 0 0 1-12.691 0v-3.004h12.69z"/>
        <path fill="#4DB4D4" d="M49.12 18.085h-9.426c-5.362 0-9.709 4.347-9.709 9.71V32.8h28.843v-5.006c0-5.363-4.347-9.71-9.709-9.71z"/>
        <path fill="#FFF" d="M49.786 18.085l-5.38 5.38-5.38-5.38z"/>
        <path fill="#FCE88F" d="M42.892 1.172h7.86v3.9a3.663 3.663 0 0 1-3.663 3.664H38.06V6.003a4.83 4.83 0 0 1 4.831-4.831z"/>
        <path fill="#FFCDAC" d="M50.752 8.736v3.004a6.345 6.345 0 0 1-12.69 0V8.736h12.69z"/>
        <path fill="#000" fill-rule="nonzero" d="M21.295 42.986a1.172 1.172 0 0 0-.258-.042 7.489 7.489 0 0 0 2.074-5.177v-6.165c0-.057-.006-.112-.013-.166.008-.111.013-.223.013-.336v-3.901c0-.647-.525-1.172-1.172-1.172h-7.86a6.01 6.01 0 0 0-6.003 6.003v5.737c0 2.005.79 3.827 2.074 5.177a1.17 1.17 0 0 0-.258.042C4.354 43.487 0 48.156 0 53.821v5.007C0 59.475.525 60 1.172 60h28.843c.647 0 1.172-.525 1.172-1.172v-5.007c0-5.666-4.354-10.333-9.892-10.835zM10.42 35.935h7.856c.91 0 1.763-.254 2.491-.693v2.525a5.18 5.18 0 0 1-5.174 5.173 5.18 5.18 0 0 1-5.173-5.173v-1.832zm7.724 9.35l-2.55 2.55-2.551-2.55h5.101zM10.42 32.03a3.663 3.663 0 0 1 3.659-3.66h6.688v2.73a2.494 2.494 0 0 1-2.491 2.49H10.42v-1.56zm18.423 25.626h-26.5v-2.343h4.864a1.172 1.172 0 1 0 0-2.344h-4.82c.393-3.951 3.492-7.116 7.412-7.614l4.966 4.966a1.172 1.172 0 0 0 1.657 0l4.966-4.966c4.198.534 7.455 4.126 7.455 8.466v3.835zM50.109 16.96a1.173 1.173 0 0 0-.26-.043 7.489 7.489 0 0 0 2.075-5.177V5.575c0-.057-.005-.112-.013-.166.008-.111.013-.223.013-.336V1.172C51.924.525 51.399 0 50.752 0h-7.86a6.01 6.01 0 0 0-6.003 6.003v5.737c0 2.005.79 3.827 2.074 5.177a1.174 1.174 0 0 0-.259.042c-5.537.502-9.89 5.17-9.89 10.835v5.007c0 .647.524 1.172 1.171 1.172h9.429a1.172 1.172 0 1 0 0-2.344h-8.257v-3.834c0-4.341 3.257-7.933 7.455-8.467l4.966 4.966a1.168 1.168 0 0 0 1.657 0l4.966-4.966c4.198.534 7.455 4.126 7.455 8.467v3.834h-8.633a1.172 1.172 0 1 0 0 2.344h9.805c.647 0 1.172-.525 1.172-1.172v-5.006c0-5.666-4.354-10.334-9.891-10.836zm-10.876-5.22V9.908h7.856c.91 0 1.763-.254 2.491-.693v2.525a5.18 5.18 0 0 1-5.173 5.174 5.18 5.18 0 0 1-5.174-5.174zm0-5.737a3.663 3.663 0 0 1 3.659-3.66h6.688v2.73a2.494 2.494 0 0 1-2.491 2.491h-7.856V6.003zm5.174 15.805l-2.55-2.55h5.1l-2.55 2.55z"/>
        <path fill="#000" d="M45.236 33.63c.218-.219.343-.52.343-.83 0-.307-.125-.61-.343-.828a1.18 1.18 0 0 0-.829-.343 1.176 1.176 0 0 0-1.172 1.172 1.174 1.174 0 0 0 1.172 1.172c.308 0 .61-.125.829-.344z"/>
        <path fill="#000" fill-rule="nonzero" d="M5.86 22.031h14.716a5.826 5.826 0 0 0 5.422-3.633h4.51a1.172 1.172 0 0 0 .829-2l-4.901-4.901V5.859c0-3.23-2.629-5.859-5.86-5.859H5.86A5.866 5.866 0 0 0 0 5.86v10.312c0 3.23 2.629 5.86 5.86 5.86zM2.343 5.86a3.52 3.52 0 0 1 3.515-3.515h14.717a3.52 3.52 0 0 1 3.516 3.515v6.123c0 .311.123.61.343.83l3.244 3.243h-2.536c-.546 0-1.02.377-1.142.909a3.496 3.496 0 0 1-3.425 2.724H5.86a3.52 3.52 0 0 1-3.515-3.516V5.859zM54.14 37.969H39.425a5.826 5.826 0 0 0-5.422 3.633h-4.51a1.172 1.172 0 0 0-.829 2l4.901 4.901v5.638c0 3.23 2.629 5.859 5.86 5.859H54.14C57.37 60 60 57.371 60 54.14V43.829c0-3.23-2.629-5.86-5.86-5.86zm3.516 16.172a3.52 3.52 0 0 1-3.515 3.515H39.424a3.52 3.52 0 0 1-3.516-3.515v-6.123c0-.311-.123-.61-.343-.83l-3.244-3.243h2.536c.546 0 1.02-.377 1.142-.909a3.496 3.496 0 0 1 3.425-2.724H54.14a3.52 3.52 0 0 1 3.515 3.516v10.313z"/>
        <path fill="#000" d="M49.392 45.866l-3.115 3.115-1.448-1.448a1.172 1.172 0 0 0-1.658 1.657l2.277 2.277a1.168 1.168 0 0 0 1.658 0l3.944-3.943a1.172 1.172 0 0 0-1.658-1.658zM11.601 9.223c.647 0 1.172-.524 1.172-1.172 0-.481.194-.928.546-1.257a1.72 1.72 0 0 1 2.888 1.133 1.712 1.712 0 0 1-1.337 1.802 1.968 1.968 0 0 0-1.55 1.93v.625a1.172 1.172 0 1 0 2.344 0v-.341a4.041 4.041 0 0 0 2.881-4.177 4.073 4.073 0 0 0-3.767-3.768 4.03 4.03 0 0 0-3.058 1.083 4.078 4.078 0 0 0-1.291 2.97c0 .648.525 1.172 1.172 1.172zM14.493 15.596a1.176 1.176 0 0 0-1.172 1.172 1.176 1.176 0 0 0 1.172 1.172c.308 0 .61-.125.828-.343a1.18 1.18 0 0 0 .343-.829c0-.308-.125-.61-.343-.828a1.18 1.18 0 0 0-.828-.344zM11.895 52.969c-.309 0-.611.125-.829.343a1.18 1.18 0 0 0-.343.829c0 .308.125.61.343.828.218.218.52.343.829.343.308 0 .61-.125.828-.343a1.18 1.18 0 0 0 .343-.828c0-.309-.125-.61-.343-.829a1.18 1.18 0 0 0-.828-.343z"/>
    </g>
</svg>
