<svg xmlns="http://www.w3.org/2000/svg" width="60" height="39" viewBox="0 0 60 39">
    <g fill="none" fill-rule="evenodd">
        <path fill="#FFE1AF" d="M48.177 26.084L33.65 2.384a15.674 15.674 0 0 0-9.422-1.098l-9.603 1.86H9v19.68c1.227 0 2.419.404 3.389 1.15l.734.565 19.08 8.696a2.73 2.73 0 0 0 3.84-.054 2.682 2.682 0 0 0-.054-3.813l-6.098-5.883 2.968 2.86 6.098 5.883a2.73 2.73 0 0 0 3.84-.055 2.682 2.682 0 0 0-.054-3.812l-6.099-5.883 3.851 3.713 3.896 3.759a2.73 2.73 0 0 0 3.84-.055 2.682 2.682 0 0 0-.054-3.813z"/>
        <path fill="#FFDCA0" d="M52 22.172L46.74 25 35.494 14.611l-4.322-.385-9.674 5.513a2.996 2.996 0 0 1-3.65-.534 3.06 3.06 0 0 1 .046-4.275l8.974-8.955A10.154 10.154 0 0 1 34.04 3H52v19.172z"/>
        <path fill="#FF5D5D" d="M51 24.807V2.193C51 1.534 51.56 1 52.25 1H59v25h-6.75c-.69 0-1.25-.534-1.25-1.193z"/>
        <path fill="#A0E557" d="M9 24.807V2.193C9 1.534 8.44 1 7.75 1H1v25h6.75C8.44 26 9 25.466 9 24.807z"/>
        <g fill="#FFDCA0">
            <path d="M13.92 27.442a2.392 2.392 0 0 1-.343-3.444l.943-1.107c.888-1.043 2.481-1.192 3.56-.333a2.392 2.392 0 0 1 .343 3.444l-.943 1.107c-.888 1.043-2.481 1.192-3.56.333z"/>
            <path d="M17.92 30.442a2.392 2.392 0 0 1-.343-3.444l.943-1.107c.888-1.043 2.481-1.192 3.56-.333a2.392 2.392 0 0 1 .343 3.444l-.943 1.107c-.888 1.043-2.481 1.192-3.56.333zM21.92 34.442a2.392 2.392 0 0 1-.343-3.444l.943-1.107c.888-1.043 2.481-1.192 3.56-.333a2.392 2.392 0 0 1 .343 3.444l-.943 1.107c-.888 1.043-2.481 1.192-3.56.333z"/>
            <path d="M25.92 37.442a2.392 2.392 0 0 1-.343-3.444l.943-1.107c.888-1.043 2.481-1.192 3.56-.333a2.392 2.392 0 0 1 .343 3.444l-.943 1.107c-.888 1.043-2.481 1.192-3.56.333z"/>
        </g>
        <path fill="#000" fill-rule="nonzero" d="M58.828 0H52.5a2.349 2.349 0 0 0-2.23 1.637H33.78l-.038-.02A16.522 16.522 0 0 0 23.636.425l-9.467 1.858H9.84A2.351 2.351 0 0 0 7.5 0H1.172C.525 0 0 .528 0 1.178v7.576c0 .651.525 1.179 1.172 1.179.647 0 1.172-.528 1.172-1.179V2.357H7.5v22.342H2.344v-6.281c0-.651-.525-1.179-1.172-1.179-.647 0-1.172.528-1.172 1.179v7.459c0 .65.525 1.178 1.172 1.178H7.5A2.353 2.353 0 0 0 9.844 24.7v-.013a4.35 4.35 0 0 1 1.49.751l.548.427a3.74 3.74 0 0 0 1.331 2.476 3.697 3.697 0 0 0 2.618.844 3.727 3.727 0 0 0 3.946 3.268c.119.953.587 1.81 1.327 2.424a3.688 3.688 0 0 0 2.62.846 3.74 3.74 0 0 0 1.325 2.422 3.688 3.688 0 0 0 2.729.838 3.697 3.697 0 0 0 2.518-1.348l.953-1.163c.28-.342.49-.72.63-1.115a3.84 3.84 0 0 0 1.822.456h.057a3.845 3.845 0 0 0 2.728-1.183c.381-.394.662-.85.844-1.334l.404.395a3.856 3.856 0 0 0 2.705 1.102 3.88 3.88 0 0 0 3.694-2.708 3.868 3.868 0 0 0 4.51-.774 3.888 3.888 0 0 0 1.096-2.776 3.886 3.886 0 0 0-1.174-2.742l-.814-.798 2.405-1.306v1.01c0 1.3 1.052 2.357 2.344 2.357h6.328c.647 0 1.172-.527 1.172-1.178v-7.813c0-.65-.525-1.178-1.172-1.178-.647 0-1.172.527-1.172 1.178v6.635H52.5V21.72 2.357h5.156v6.578c0 .65.525 1.179 1.172 1.179.647 0 1.172-.528 1.172-1.179V1.178C60 .528 59.475 0 58.828 0zM14.541 26.679a1.362 1.362 0 0 1-.202-1.986l1.025-1.179A1.504 1.504 0 0 1 16.515 23c.344 0 .675.112.944.322.633.495.724 1.385.202 1.986l-1.025 1.179c-.521.6-1.461.686-2.095.192zm4 3a1.381 1.381 0 0 1-.534-.953c-.038-.375.08-.742.333-1.033l1.024-1.18A1.502 1.502 0 0 1 20.515 26c.344 0 .674.112.943.322.307.24.497.578.535.953.038.375-.08.742-.333 1.033l-1.024 1.179c-.521.6-1.461.686-2.094.192zm4.001 3a1.382 1.382 0 0 1-.535-.954c-.038-.375.08-.742.333-1.033l1.024-1.179a1.52 1.52 0 0 1 1.15-.513c.333 0 .668.105.945.321.633.495.724 1.385.202 1.986l-1.025 1.18c-.252.29-.61.47-1.005.506a1.53 1.53 0 0 1-1.089-.315zm7.118 2.628l-1.024 1.18c-.253.29-.61.47-1.006.506a1.53 1.53 0 0 1-1.089-.315 1.362 1.362 0 0 1-.202-1.985l1.025-1.18a1.503 1.503 0 0 1 1.15-.513c.345 0 .675.112.944.322.307.24.497.578.535.953.038.375-.08.741-.333 1.032zm17.9-6.097a1.564 1.564 0 0 1-2.2.031l-3.931-3.798c-.004-.005-.01-.008-.014-.012l-3.873-3.743a1.19 1.19 0 0 0-1.677.024 1.174 1.174 0 0 0 .024 1.667l6.155 5.947c.615.594.63 1.575.031 2.187a1.564 1.564 0 0 1-2.2.031l-6.154-5.947c-.012-.012-.026-.022-.039-.033l-2.957-2.857a1.191 1.191 0 0 0-1.677.024 1.174 1.174 0 0 0 .024 1.667l6.155 5.946c.615.595.63 1.576.032 2.187a1.55 1.55 0 0 1-1.094.469 1.548 1.548 0 0 1-1.106-.438l-1.724-1.665a1.189 1.189 0 0 0-.122-.102c-.022-.018-.043-.038-.066-.056a3.773 3.773 0 0 0-2.65-.845 3.73 3.73 0 0 0-1.342-2.425 3.772 3.772 0 0 0-2.65-.844 3.718 3.718 0 0 0-1.342-2.425 3.76 3.76 0 0 0-2.651-.847 3.764 3.764 0 0 0-4.102-3.262 3.753 3.753 0 0 0-2.549 1.35l-.964 1.163a3.764 3.764 0 0 0-.226.302A6.838 6.838 0 0 0 10 21.812V4.172h4.492c.076 0 .152-.008.227-.023l9.692-1.88a14.573 14.573 0 0 1 4.929-.11 11.39 11.39 0 0 0-3.342 2.284l-8.978 8.831a4.175 4.175 0 0 0-.066 5.874 4.211 4.211 0 0 0 3.023 1.274c.707 0 1.418-.177 2.066-.54l9.408-5.285H34.7l12.829 12.427c.298.287.465.673.47 1.086a1.53 1.53 0 0 1-.439 1.1zM45.87 23l-8.313-8.093h.816a1.162 1.162 0 1 0 0-2.323h-7.637c-.2 0-.397.052-.572.15l-9.489 5.357a1.795 1.795 0 0 1-2.172-.315 1.798 1.798 0 0 1 .028-2.52l8.8-8.702A8.79 8.79 0 0 1 33.55 4H50v16.772L45.869 23z"/>
        <path fill="#000" d="M59 12a1.003 1.003 0 0 0-1 1c0 .263.107.521.293.707.186.186.444.293.707.293.263 0 .521-.107.707-.293A1.01 1.01 0 0 0 60 13a1.003 1.003 0 0 0-1-1zM1 14c.263 0 .521-.107.707-.293A1.01 1.01 0 0 0 2 13a1.003 1.003 0 0 0-1.707-.707A1.006 1.006 0 0 0 0 13c0 .263.107.52.293.707.186.186.444.293.707.293z"/>
    </g>
</svg>
