<svg xmlns="http://www.w3.org/2000/svg" width="60" height="59" viewBox="0 0 60 59">
    <g fill="none" fill-rule="evenodd">
        <path fill="#C2E565" fill-rule="nonzero" d="M39.468 45.666l-3.024 3.024 2.712 2.688 3.024-3-2.712-2.712zm11.088-17.352c7.668 3.84 10.764 13.164 6.924 20.82-3.84 7.656-13.164 10.764-20.82 6.924-7.656-3.84-10.764-13.164-6.924-20.82a15.51 15.51 0 0 1 20.82-6.924zm1.452 8.856a4.061 4.061 0 0 0-4.068-4.056 4.061 4.061 0 0 0-4.056 4.068 4.061 4.061 0 0 0 4.068 4.056 4.06 4.06 0 0 0 4.056-4.068z"/>
        <path fill="#FCE88F" d="M47.952 33.114a4.061 4.061 0 0 1 4.056 4.068 4.058 4.058 0 0 1-4.056 4.056c-2.244 0-4.068-1.824-4.068-4.056a4.064 4.064 0 0 1 4.068-4.068z"/>
        <path fill="#F2754F" d="M50.556 23.022v5.304a15.499 15.499 0 0 0-15.492.924v-2.004a7.964 7.964 0 0 0-3.06-6.3l.036-.048c.972-3.372 4.056-5.892 7.776-5.892h2.772c4.404.012 7.98 3.6 7.968 8.016 0-.012 0-.012 0 0z"/>
        <path fill="#F48569" d="M46.56 6.33v.036a5.388 5.388 0 0 1-5.352 5.388h-.072c-3 0-5.424-2.424-5.436-5.424v-.012c0-3 2.424-5.424 5.424-5.424h.012A5.429 5.429 0 0 1 46.56 6.33z"/>
        <path fill="#FCE88F" d="M42.18 48.378l-3.024 3-2.724-2.688 3.036-3.024z"/>
        <path fill="#4DB4D4" d="M35.076 27.246v1.992a15.55 15.55 0 0 0-5.64 6.672l-.036-.012H16.32v-8.676a7.997 7.997 0 0 1 8.004-7.98h2.772a7.997 7.997 0 0 1 7.98 8.004z"/>
        <path fill="#75DBE9" d="M31.128 10.494c0 3-2.424 5.424-5.424 5.436-3 0-5.424-2.424-5.436-5.424v-.012c0-3 2.424-5.424 5.424-5.424h.012a5.426 5.426 0 0 1 5.424 5.424z"/>
        <path fill="#F8C14E" d="M19.356 20.838l.06.072a8.019 8.019 0 0 0-3.096 6.3v4.452H.888v-8.676a7.997 7.997 0 0 1 8.004-7.98h2.748a8.056 8.056 0 0 1 7.716 5.832z"/>
        <path fill="#FCE88F" d="M15.696 6.318a5.565 5.565 0 0 1-1.62 3.852 5.389 5.389 0 0 1-3.804 1.584c-3 0-5.424-2.424-5.436-5.424v-.012c0-3 2.424-5.424 5.424-5.424h.012a5.426 5.426 0 0 1 5.424 5.424z"/>
        <g fill="#083863" fill-rule="nonzero">
            <path d="M41.124 12.606h.084c3.408 0 6.18-2.832 6.18-6.24v-.048C47.376 2.862 44.568.054 41.1.066c-3.456.012-6.264 2.82-6.252 6.288.024 3.456 2.832 6.252 6.276 6.252zm.012-10.872A4.586 4.586 0 0 1 45.72 6.33v.036c0 2.496-2.028 4.56-4.512 4.56h-.084A4.613 4.613 0 0 1 36.6 6.258a4.609 4.609 0 0 1 4.536-4.524zM10.26 12.606a6.22 6.22 0 0 0 4.416-1.836 6.302 6.302 0 0 0 1.884-4.44v-.024C16.548 2.838 13.74.03 10.272.042a6.301 6.301 0 0 0-6.276 6.3 6.268 6.268 0 0 0 6.264 6.264zm.012-10.872a4.584 4.584 0 0 1 4.584 4.584 4.803 4.803 0 0 1-1.38 3.276 4.54 4.54 0 0 1-3.216 1.332 4.612 4.612 0 0 1-4.524-4.668 4.609 4.609 0 0 1 4.536-4.524zM51.36 27.81v-4.788a8.811 8.811 0 0 0-8.748-8.856h-2.796a8.963 8.963 0 0 0-8.22 5.46 8.635 8.635 0 0 0-4.5-1.26h-2.784a8.768 8.768 0 0 0-4.5 1.248 8.922 8.922 0 0 0-8.184-5.448H8.88c-4.86 0-8.88 3.96-8.88 8.82v8.676c.024.48.408.852.888.852H15.48v3.372c0 .456.372.828.84.828H28.2a16.492 16.492 0 0 0-.924 5.448c0 9.012 7.332 16.344 16.344 16.344s16.344-7.332 16.344-16.344a16.25 16.25 0 0 0-2.52-8.688 16.134 16.134 0 0 0-6.084-5.664zM39.816 15.846h2.772c3.936.012 7.116 3.216 7.092 7.14v4.032a15.9 15.9 0 0 0-6.108-1.176c-2.688 0-5.328.66-7.692 1.932v-.528a8.798 8.798 0 0 0-2.904-6.576 7.335 7.335 0 0 1 6.84-4.824zm-38.136 15v-7.86c0-3.936 3.264-7.14 7.2-7.14h2.76a7.235 7.235 0 0 1 6.78 4.812 8.747 8.747 0 0 0-2.94 6.564v3.624H1.68zm15.48-3.624a7.185 7.185 0 0 1 7.164-7.176h2.772c1.596 0 3.132.54 4.38 1.536a7.176 7.176 0 0 1 2.724 5.664v1.548a16.218 16.218 0 0 0-5.304 6.252H17.16v-7.824zm26.448 29.616c-8.1-.024-14.652-6.612-14.628-14.712.024-8.064 6.552-14.604 14.628-14.628 2.316 0 4.524.576 6.576 1.536a14.624 14.624 0 0 1 8.088 13.116c0 8.1-6.576 14.688-14.664 14.688z"/>
            <path d="M47.952 32.274a4.893 4.893 0 0 0-4.896 4.896c0 1.008.312 2.004.9 2.832l-9.42 9.42a.847.847 0 0 0 0 1.188.847.847 0 0 0 1.188 0l.732-.732 2.124 2.1a.847.847 0 0 0 1.188 0l3.024-3a.837.837 0 0 0 0-1.188l-2.124-2.124 4.476-4.476c2.208 1.56 5.268 1.02 6.828-1.188 1.56-2.208 1.02-5.268-1.188-6.828a4.93 4.93 0 0 0-2.832-.9zm-6.96 16.104l-1.836 1.824-1.524-1.512 1.836-1.836 1.524 1.524zm6.96-7.98a3.227 3.227 0 0 1-3.228-3.216 3.227 3.227 0 0 1 3.216-3.228 3.226 3.226 0 0 1 3.228 3.216 3.219 3.219 0 0 1-3.216 3.228zM25.692 16.77h.084c3.408 0 6.18-2.832 6.18-6.24v-.048c-.012-3.456-2.82-6.264-6.288-6.252-3.456.012-6.264 2.82-6.252 6.288a6.292 6.292 0 0 0 6.276 6.252zm0-10.872a4.586 4.586 0 0 1 4.584 4.596v.036c0 2.496-2.028 4.56-4.512 4.56h-.084a4.612 4.612 0 0 1-4.524-4.668c.06-2.484 2.064-4.488 4.536-4.524z"/>
        </g>
    </g>
</svg>
