<svg xmlns="http://www.w3.org/2000/svg" width="100" height="100" viewBox="0 0 100 100">
    <g fill="none" fill-rule="nonzero" opacity=".7">
        <path fill="#FFCDAC" d="M32.67 44H44.98c1.965 0 3.827.85 5.083 2.321l7.965 9.327c1.769 2.071 1.037 5.21-1.476 6.337a4.295 4.295 0 0 1-4.654-.747l-5.553-5.59L24.975 75 17 70.418 32.67 44z"/>
        <path fill="#FFB487" d="M67.652 44H62.01a6.49 6.49 0 0 0-4.625 1.941l-5.27 4.522 4.498 5.465c1.745 2.12 1.024 5.336-1.456 6.49a4.121 4.121 0 0 1-4.593-.766l-5.182-5.412-7.252 6.222-13.846 13.011a3.676 3.676 0 0 0 .612 3.83 3.59 3.59 0 0 0 5.101.333 3.676 3.676 0 0 0-.33 5.152 3.59 3.59 0 0 0 5.103.333 3.676 3.676 0 0 0-.33 5.152 3.59 3.59 0 0 0 5.102.333 3.676 3.676 0 0 0-.33 5.153 3.59 3.59 0 0 0 5.102.333l-.008.009 5.404-4.832L82 70.367 67.652 44z"/>
        <path fill="#1BD2F2" d="M84.505 72.838l-18-31.176 12.99-7.5 18 31.176z"/>
        <path fill="#EE4250" d="M1.505 65.338l18-31.176 12.99 7.5-18 31.176z"/>
        <g fill="#FFCDAC">
            <path d="M58.896 96.719a3.762 3.762 0 0 1-5.293 0l-2.507-2.489a3.695 3.695 0 0 1 0-5.252 3.762 3.762 0 0 1 5.293 0l2.507 2.488a3.695 3.695 0 0 1 0 5.253z"/>
            <path d="M64.188 91.466a3.762 3.762 0 0 1-5.292 0l-2.507-2.488a3.695 3.695 0 0 1 0-5.253 3.762 3.762 0 0 1 5.292 0l2.507 2.488a3.695 3.695 0 0 1 0 5.253z"/>
            <path d="M69.48 86.213a3.762 3.762 0 0 1-5.292 0l-2.507-2.488a3.695 3.695 0 0 1 0-5.253 3.762 3.762 0 0 1 5.293 0l2.507 2.488a3.695 3.695 0 0 1 0 5.253z"/>
            <path d="M74.773 80.96a3.762 3.762 0 0 1-5.292 0l-2.507-2.488a3.695 3.695 0 0 1 0-5.253 3.762 3.762 0 0 1 5.292 0l2.507 2.488a3.695 3.695 0 0 1 0 5.253z"/>
        </g>
        <circle cx="50" cy="20" r="18" fill="#F5A623"/>
        <path fill="#000" d="M99.738 64.484l-18.04-31.5a1.944 1.944 0 0 0-2.668-.72l-13.108 7.629a1.966 1.966 0 0 0-.944 2.048H62.37a8.536 8.536 0 0 0-6.036 2.529l-3.412 3.457-2.382-2.89a8.462 8.462 0 0 0-6.547-3.096h-8.971a1.967 1.967 0 0 0-.944-2.048L20.97 32.264a1.945 1.945 0 0 0-2.668.72l-4.353 7.602c-.54.942-.22 2.146.714 2.69a1.944 1.944 0 0 0 2.668-.72l3.378-5.897 9.724 5.66-16.087 28.089-9.725-5.66 3.624-6.328c.54-.942.22-2.146-.714-2.69a1.945 1.945 0 0 0-2.668.72L.262 64.485c-.26.452-.33.99-.195 1.494.134.505.46.935.91 1.196l13.107 7.628a1.942 1.942 0 0 0 2.668-.72l.177-.31 5.26 3.13a5.638 5.638 0 0 0 1.388 3.746 5.552 5.552 0 0 0 3.409 1.856 5.618 5.618 0 0 0 1.39 3.65 5.535 5.535 0 0 0 3.412 1.86 5.635 5.635 0 0 0 1.388 3.647 5.553 5.553 0 0 0 3.412 1.857c.015 1.299.472 2.6 1.387 3.65a5.558 5.558 0 0 0 4.202 1.912 5.537 5.537 0 0 0 3.682-1.394l3.11-2.776c.21.323.455.63.737.914l2.486 2.506a5.624 5.624 0 0 0 4.005 1.67c1.45 0 2.9-.557 4.005-1.67a5.705 5.705 0 0 0 1.64-3.636 5.618 5.618 0 0 0 3.608-1.654 5.705 5.705 0 0 0 1.64-3.636 5.618 5.618 0 0 0 3.608-1.655 5.705 5.705 0 0 0 1.64-3.636 5.618 5.618 0 0 0 3.608-1.654c1.637-1.65 2.059-4.067 1.27-6.114l5.268-3.597.764 1.334a1.955 1.955 0 0 0 1.691.984c.34 0 .677-.09.977-.263l13.107-7.63a1.978 1.978 0 0 0 .715-2.689zM57.44 95.546a1.75 1.75 0 0 1-2.486 0l-2.486-2.506a1.768 1.768 0 0 1-.515-1.253 1.768 1.768 0 0 1 1.758-1.772c.47 0 .91.184 1.243.519l2.486 2.506c.685.69.685 1.815 0 2.506zm5.248-5.29a1.75 1.75 0 0 1-2.486 0l-2.486-2.507a1.768 1.768 0 0 1-.515-1.253 1.768 1.768 0 0 1 1.758-1.772c.47 0 .91.184 1.243.52l2.486 2.505c.685.691.685 1.815 0 2.506zm5.248-5.291a1.75 1.75 0 0 1-2.486 0l-2.486-2.506a1.768 1.768 0 0 1-.515-1.253 1.768 1.768 0 0 1 1.758-1.772c.47 0 .91.184 1.243.519l2.486 2.506a1.784 1.784 0 0 1 0 2.506zm5.248-5.29a1.75 1.75 0 0 1-2.486 0l-2.486-2.507a1.784 1.784 0 0 1 0-2.506 1.746 1.746 0 0 1 2.486 0l2.486 2.506a1.784 1.784 0 0 1 0 2.506zm1.621-6.441l-1.345-1.356a5.638 5.638 0 0 0-8.01 0 5.705 5.705 0 0 0-1.641 3.636 5.618 5.618 0 0 0-3.607 1.654 5.705 5.705 0 0 0-1.641 3.637 5.618 5.618 0 0 0-3.607 1.654 5.705 5.705 0 0 0-1.641 3.636 5.618 5.618 0 0 0-3.607 1.654 5.683 5.683 0 0 0-1.46 2.547l-4.912 4.384a1.675 1.675 0 0 1-2.425-.112 1.708 1.708 0 0 1 .154-2.393c.066-.06 5.658-5.525 5.658-5.525a1.98 1.98 0 0 0 .013-2.784 1.942 1.942 0 0 0-2.762-.014s-5.057 5.056-5.09 5.094c-.14.072-.274.161-.398.27a1.675 1.675 0 0 1-2.374-.154 1.707 1.707 0 0 1 .153-2.394c.194-.172.344-.375.454-.594l5.344-5.4a1.98 1.98 0 0 0-.003-2.784c-.763-.768-2-.767-2.762.003l-5.674 5.733a1.979 1.979 0 0 0-.243.298 1.667 1.667 0 0 1-2.069-.37 1.693 1.693 0 0 1-.414-1.228c.029-.452.23-.865.568-1.164.015-.013.027-.028.041-.041.017-.016.036-.03.052-.048l6.199-6.261a1.98 1.98 0 0 0-.003-2.785c-.764-.768-2-.767-2.762.003l-6.134 6.196a1.674 1.674 0 0 1-2.346-.177 1.708 1.708 0 0 1 .153-2.394c.057-.05 5.453-5.292 5.453-5.292a1.98 1.98 0 0 0 .067-2.783 1.942 1.942 0 0 0-2.761-.068s-5.694 5.526-5.814 5.662l-4.726-2.813 14.022-24.483h11.088a4.58 4.58 0 0 1 3.543 1.676l7.905 9.587c.445.54.612 1.243.458 1.928a2.221 2.221 0 0 1-1.238 1.54 2.198 2.198 0 0 1-2.458-.409l-8.476-8.096a1.942 1.942 0 0 0-2.762.075 1.98 1.98 0 0 0 .075 2.783l.547.523c-1.537 3.087-4.833 5.01-8.296 4.744l-.042-.003a1.958 1.958 0 0 0-2.095 1.814 1.964 1.964 0 0 0 1.8 2.112l.041.003c.31.024.618.036.926.036 4.304 0 8.326-2.288 10.586-5.917l5.009 4.785a6.078 6.078 0 0 0 4.206 1.699c.869 0 1.746-.188 2.573-.572a6.124 6.124 0 0 0 3.414-4.247 6.171 6.171 0 0 0-1.264-5.315l-3.014-3.655 3.673-3.722a4.62 4.62 0 0 1 3.266-1.369h4.726l13.43 23.45-5.72 3.906zm10.849-2.826l-16.087-28.09 9.724-5.66 16.087 28.09-9.724 5.66z"/>
        <path fill="#000" d="M9.968 51.746c.306.172.638.254.967.254.67 0 1.32-.34 1.68-.947l.125-.213a1.87 1.87 0 0 0-.708-2.586c-.927-.523-2.111-.213-2.646.692l-.126.214a1.87 1.87 0 0 0 .708 2.586zM86.5 64c.394 0 .781-.16 1.06-.44.28-.279.44-.666.44-1.06 0-.395-.16-.782-.44-1.06A1.511 1.511 0 0 0 86.5 61c-.394 0-.781.16-1.06.44-.28.279-.44.666-.44 1.06 0 .395.16.782.44 1.06.279.28.666.44 1.06.44zM10.44 61.44c-.28.279-.44.666-.44 1.06 0 .395.16.782.44 1.06.279.28.665.44 1.06.44s.781-.16 1.06-.44c.28-.279.44-.666.44-1.06 0-.395-.16-.782-.44-1.06A1.511 1.511 0 0 0 11.5 61c-.395 0-.781.16-1.06.44zM46 16.5c0-.396-.16-.781-.44-1.062A1.51 1.51 0 0 0 44.498 15a1.51 1.51 0 0 0-1.06.438A1.51 1.51 0 0 0 43 16.5c0 .395.159.782.438 1.06.279.28.666.44 1.06.44.397 0 .782-.16 1.063-.44.279-.278.439-.665.439-1.06zM54.438 15.438c-.279.28-.438.666-.438 1.062 0 .395.159.782.438 1.06.28.28.666.44 1.062.44.395 0 .782-.16 1.06-.44.28-.278.44-.665.44-1.06 0-.396-.16-.781-.44-1.062A1.51 1.51 0 0 0 55.5 15c-.396 0-.782.159-1.062.438z"/>
        <path fill="#000" d="M49.5 39C60.252 39 69 30.252 69 19.5c0-2.22-.37-4.398-1.101-6.474a1.93 1.93 0 1 0-3.64 1.28c.585 1.664.882 3.411.882 5.194 0 8.625-7.016 15.641-15.641 15.641S33.859 28.124 33.859 19.5c0-8.624 7.016-15.641 15.641-15.641 1.688 0 3.348.267 4.934.793A1.929 1.929 0 1 0 55.65.99 19.474 19.474 0 0 0 49.5 0C38.748 0 30 8.748 30 19.5S38.748 39 49.5 39z"/>
        <path fill="#000" d="M61.678 8.406c.379.395.886.594 1.393.594a1.926 1.926 0 0 0 1.393-3.26 20.467 20.467 0 0 0-.156-.161 1.93 1.93 0 0 0-2.728-.03 1.926 1.926 0 0 0-.03 2.726l.128.13zM49.5 28c1.793 0 3.585-.65 4.95-1.948a1.728 1.728 0 0 0 0-2.528 1.947 1.947 0 0 0-2.657 0c-1.264 1.203-3.322 1.203-4.586 0a1.947 1.947 0 0 0-2.657 0 1.728 1.728 0 0 0 0 2.528C45.915 27.35 47.707 28 49.5 28zM84.862 11h1.276C87.167 11 88 10.328 88 9.5S87.167 8 86.138 8h-1.276C83.833 8 83 8.672 83 9.5s.833 1.5 1.862 1.5zM93.862 11h1.276C96.167 11 97 10.328 97 9.5S96.167 8 95.138 8h-1.276C92.833 8 92 8.672 92 9.5s.833 1.5 1.862 1.5zM89.5 17c.828 0 1.5-.833 1.5-1.862v-1.276C91 12.833 90.328 12 89.5 12s-1.5.833-1.5 1.862v1.276c0 1.029.672 1.862 1.5 1.862zM89.5 8c.828 0 1.5-.833 1.5-1.862V4.862C91 3.833 90.328 3 89.5 3S88 3.833 88 4.862v1.276C88 7.167 88.672 8 89.5 8zM1.862 26h1.276C4.167 26 5 25.328 5 24.5S4.167 23 3.138 23H1.862C.833 23 0 23.672 0 24.5S.833 26 1.862 26zM11.862 26h1.276C14.167 26 15 25.328 15 24.5s-.833-1.5-1.862-1.5h-1.276C10.833 23 10 23.672 10 24.5s.833 1.5 1.862 1.5zM6.5 32c.828 0 1.5-.833 1.5-1.862v-1.276C8 27.833 7.328 27 6.5 27S5 27.833 5 28.862v1.276C5 31.167 5.672 32 6.5 32zM6.5 22c.828 0 1.5-.833 1.5-1.862v-1.276C8 17.833 7.328 17 6.5 17S5 17.833 5 18.862v1.276C5 21.167 5.672 22 6.5 22z"/>
    </g>
</svg>
