<svg xmlns="http://www.w3.org/2000/svg" width="100" height="100" viewBox="0 0 100 100">
    <g fill="none" fill-rule="nonzero" opacity=".7">
        <path fill="#FFCDAC" d="M86.331 53.28l.002-.001V35.936c0-3.278 2.612-5.936 5.834-5.936C95.389 30 98 32.658 98 35.936V62.34c0 2.099-.819 4.111-2.279 5.598L83.584 80.289a3.995 3.995 0 0 0-1.14 2.798V86H63V72.376c0-2.1.819-4.114 2.279-5.598L78.32 53.506a5.754 5.754 0 0 1 8.011-.225z"/>
        <path fill="#1BD2F2" d="M86 85v12H59V85h23.143z"/>
        <path fill="#F5A623" d="M50.5 2C65.662 2 78 14.336 78 29.5S65.662 57 50.5 57 23 44.664 23 29.5 35.338 2 50.5 2z"/>
        <path fill="#1BD2F2" d="M40 85v12H13V85h23.143z"/>
        <path fill="#FFCDAC" d="M13.669 53.28a5.754 5.754 0 0 1 8.01.226l13.042 13.272A7.982 7.982 0 0 1 37 72.376V86H17.556v-2.913c0-1.049-.41-2.056-1.14-2.798L4.28 67.938A7.985 7.985 0 0 1 2 62.34V35.936C2 32.658 4.611 30 7.833 30s5.834 2.658 5.834 5.936V53.28l.002.002z"/>
        <path fill="#000" d="M38.5 14a1.5 1.5 0 1 0-.001-3.001A1.5 1.5 0 0 0 38.5 14zM49.558 35.286c-.775 0-1.612-.518-2.355-1.46-.645-.815-1.79-.92-2.556-.234-.767.685-.866 1.902-.222 2.717.97 1.226 2.11 2.08 3.319 2.512v2.25c0 1.066.812 1.929 1.814 1.929s1.814-.863 1.814-1.929v-2.26c2.111-.796 3.628-2.94 3.628-5.454 0-3.19-2.441-5.786-5.442-5.786-1 0-1.814-.865-1.814-1.928 0-1.064.814-1.929 1.814-1.929.643 0 1.32.349 1.962 1.008.72.741 1.868.72 2.565-.044a2.016 2.016 0 0 0-.042-2.728c-.92-.947-1.842-1.482-2.671-1.775V17.93c0-1.066-.812-1.929-1.814-1.929s-1.814.863-1.814 1.929v2.26c-2.111.796-3.628 2.94-3.628 5.454 0 3.19 2.441 5.786 5.442 5.786 1 0 1.814.865 1.814 1.928 0 1.064-.814 1.929-1.814 1.929zM92.182 29c-4.311 0-7.818 3.48-7.818 7.76v13.825a7.856 7.856 0 0 0-7.483 2.027l-13.108 13.01a9.594 9.594 0 0 0-2.864 6.86V83.9h-1.954c-1.08 0-1.955.868-1.955 1.94V98.06c0 1.072.875 1.94 1.955 1.94h27.363c1.08 0 1.955-.868 1.955-1.94V85.84c0-1.072-.876-1.94-1.955-1.94h-1.954v-.916c0-.51.208-1.01.573-1.371l12.2-12.109a9.602 9.602 0 0 0 2.863-6.86V36.76c0-4.28-3.507-7.76-7.818-7.76zm-7.818 67.12H60.909V87.78h23.455v8.341zM96.09 62.644c0 1.554-.61 3.016-1.718 4.116l-12.2 12.109a5.837 5.837 0 0 0-1.718 4.114v.916H64.818V72.483c0-1.557.61-3.018 1.718-4.117l13.11-13.01a3.924 3.924 0 0 1 5.365-.15l.033.03a3.836 3.836 0 0 1 1.274 2.863c0 1.035-.407 2.01-1.145 2.742l-9.713 9.64a1.93 1.93 0 0 0 0 2.743c.764.758 2.001.758 2.765 0l9.712-9.639a7.678 7.678 0 0 0 2.29-5.487 7.665 7.665 0 0 0-1.954-5.129V36.76c0-2.139 1.753-3.88 3.909-3.88 2.155 0 3.909 1.741 3.909 3.88v25.885zM41.045 83.899h-1.954V72.483a9.594 9.594 0 0 0-2.863-6.86l-13.11-13.01a7.855 7.855 0 0 0-7.482-2.028V36.76c0-4.28-3.507-7.76-7.818-7.76C3.508 29 0 32.48 0 36.76v25.884a9.602 9.602 0 0 0 2.863 6.86l12.2 12.108c.365.361.573.861.573 1.371v.916h-1.954c-1.08 0-1.955.868-1.955 1.94V98.06c0 1.072.876 1.94 1.955 1.94h27.363c1.08 0 1.955-.868 1.955-1.94V85.84c0-1.072-.875-1.94-1.955-1.94zm-23.217-5.03L5.628 66.76a5.762 5.762 0 0 1-1.719-4.116V36.76c0-2.14 1.754-3.88 3.91-3.88 2.155 0 3.908 1.74 3.908 3.88v16.21a7.665 7.665 0 0 0-1.954 5.128c0 2.074.813 4.022 2.29 5.487l9.773 9.699c.763.758 2 .758 2.764 0a1.93 1.93 0 0 0 0-2.744l-9.773-9.7a3.836 3.836 0 0 1-1.145-2.742 3.838 3.838 0 0 1 1.273-2.862l.034-.03a3.924 3.924 0 0 1 5.365.15l13.11 13.011a5.755 5.755 0 0 1 1.718 4.115V83.9H19.545v-.916a5.836 5.836 0 0 0-1.717-4.114zM39.09 96.12H15.636V87.78h23.455v8.341z"/>
        <path fill="#000" d="M79 29C79 13.01 65.99 0 50 0S21 13.01 21 29s13.01 29 29 29 29-13.01 29-29zM50 54.133C36.141 54.133 24.867 42.86 24.867 29S36.14 3.867 50 3.867 75.133 15.14 75.133 29 63.86 54.133 50 54.133z"/>
        <path fill="#000" d="M63.997 12.758C58.91 8.65 52.255 7.102 45.737 8.507a1.955 1.955 0 0 0 .824 3.822c5.357-1.156 10.818.11 14.98 3.47a17.532 17.532 0 0 1 6.55 13.698c0 9.7-7.891 17.593-17.591 17.593-9.7 0-17.59-7.892-17.59-17.593 0-2.898.718-5.77 2.08-8.306a1.955 1.955 0 0 0-3.445-1.85A21.549 21.549 0 0 0 29 29.498C29 41.354 38.645 51 50.5 51S72 41.354 72 29.497a21.423 21.423 0 0 0-8.003-16.74z"/>
    </g>
</svg>
