<svg xmlns="http://www.w3.org/2000/svg" width="60" height="60" viewBox="0 0 60 60">
    <g fill="none" fill-rule="evenodd">
        <path fill="#75DBE9" d="M18.967 40.915h-6.415L1.005 52.225l6.415 6.652 11.547-11.31z"/>
        <path fill="#F2754F" d="M38.926 20.956h7.128L58.884 8.39 51.756.998l-12.83 12.567z"/>
        <path fill="#C2E565" d="M24.955 32.931l4.165 13.971h15.43l4.355-13.97z"/>
        <g fill="#DBE6FD" transform="translate(30.936 54.886)">
            <circle cx="2.003" cy="1.996" r="1.996"/>
            <circle cx="12.98" cy="1.996" r="1.996"/>
        </g>
        <path fill="#FCE88F" d="M28.946 28.94v-9.98L11.353.998l-10.348 9.98L18.598 28.94z"/>
        <path fill="#000" fill-rule="nonzero" d="M44.55 47.9H29.12a.997.997 0 0 1-.956-.713l-4.165-13.97a.998.998 0 0 1 .956-1.284h23.95a.998.998 0 0 1 .953 1.295l-4.354 13.97a1 1 0 0 1-.953.702zm-14.686-1.996h13.953l3.731-11.975H26.294l3.57 11.975z"/>
        <path fill="#000" d="M30.942 36.923h11.975v1.996H30.942v-1.996zM31.94 40.915h9.98v1.996h-9.98z"/>
        <path fill="#000" fill-rule="nonzero" d="M54.892 30.936a.998.998 0 0 0-.936.652L47.21 49.896h-20.26v1.996h4.99v2.18a2.994 2.994 0 1 0 1.995 0v-2.18h8.981v2.18a2.994 2.994 0 1 0 1.996 0v-2.18h2.994c.418 0 .792-.26.936-.653l6.745-18.308h4.294v-1.995h-4.99zM32.938 57.879a.998.998 0 1 1 0-1.996.998.998 0 0 1 0 1.996zm10.977 0a.998.998 0 1 1 0-1.996.998.998 0 0 1 0 1.996zM28.946 29.938h-9.979a.997.997 0 0 1-.705-.293L.299 11.683a.997.997 0 0 1 0-1.411l9.98-9.98a.997.997 0 0 1 1.41 0l17.963 17.963a.999.999 0 0 1 .292.705v9.98a.998.998 0 0 1-.997.998zm-9.566-1.996h8.569v-8.568L10.984 2.409l-8.568 8.568L19.38 27.942z"/>
        <path fill="#000" d="M46.666 15.965a2.75 2.75 0 0 1-1.945-4.695l1.411 1.41a.756.756 0 1 0 1.07 1.07c.27-.27.314-.37-.18-1.31-.446-.851-1.195-2.277.18-3.65a2.752 2.752 0 0 1 3.893 3.888l-.002.003-1.412-1.411a.756.756 0 1 0-1.069-1.069c-.27.27-.316.37.178 1.312.446.851 1.194 2.276-.178 3.648a2.747 2.747 0 0 1-1.946.804zM9.95 52.39a2.458 2.458 0 0 1-1.739-4.197l1.411 1.41a.464.464 0 1 0 .654.658l.002-.002c.162-.162.191-.19-.178-.895a2.493 2.493 0 0 1 .178-3.238 2.46 2.46 0 1 1 3.478 3.478l-1.41-1.411a.464.464 0 1 0-.655-.658l-.001.002c-.164.164-.193.193.177.9.745.974.67 2.346-.177 3.234a2.452 2.452 0 0 1-1.74.718z"/>
        <path fill="#000" fill-rule="nonzero" d="M45.911 21.954h-6.985a.998.998 0 0 1-.998-.997V13.97c0-.265.105-.519.292-.706L51.193.292a.997.997 0 0 1 1.41 0h.001l6.986 6.986a.997.997 0 0 1 0 1.41L46.617 21.663a.996.996 0 0 1-.706.292zm-5.987-1.996h5.574L57.473 7.983 51.899 2.41 39.924 14.384v5.574zM7.99 59.875a.995.995 0 0 1-.705-.292L.299 52.597a.997.997 0 0 1 0-1.41l10.977-10.978a.997.997 0 0 1 .706-.292h6.985c.551 0 .998.446.998.997V47.9a.998.998 0 0 1-.292.706L8.696 59.583a.994.994 0 0 1-.706.292zm-5.574-7.983l5.574 5.574 9.98-9.979v-5.574h-5.575l-9.98 9.979z"/>
        <path fill="#000" d="M23.458 24.948a1.497 1.497 0 1 1 0-2.994 1.497 1.497 0 0 1 0 2.994zM20.158 18.74a3.329 3.329 0 0 0-.586-3.892c-1.655-1.657-3.351-.767-4.474-.177-1.212.635-1.58.735-2.139.177a1.34 1.34 0 0 1 1.896-1.896l1.41-1.411a3.329 3.329 0 0 0-3.892-.586l-1.682-1.681-1.41 1.41 1.681 1.682a3.33 3.33 0 0 0 .586 3.893c1.658 1.66 3.355.768 4.478.179 1.209-.636 1.576-.736 2.135-.179a1.34 1.34 0 1 1-1.895 1.896l-1.411 1.41a3.291 3.291 0 0 0 3.892.587l1.51 1.51 1.412-1.411-1.51-1.51zM36.93 23.95h1.996v1.996H36.93zM36.93 27.942h1.996v1.996H36.93zM19.965 31.933h1.996v1.996h-1.996zM19.965 35.925h1.996v1.996h-1.996z"/>
    </g>
</svg>
