<svg xmlns="http://www.w3.org/2000/svg" width="60" height="51" viewBox="0 0 60 51">
    <g fill="none" fill-rule="evenodd">
        <path fill="#E1EFFB" d="M48.443 16.041h2.745v33.752h-2.745z"/>
        <path fill="#CCDFED" d="M49.815 16.041h1.373v33.752h-1.373z"/>
        <path fill="#2DE8E8" d="M57.74 20.131H41.126c-.704 0-1.275-.57-1.275-1.275V2.242c0-.705.571-1.276 1.275-1.276h16.615c.704 0 1.275.571 1.275 1.276v16.614c0 .704-.571 1.275-1.276 1.275z"/>
        <path fill="#C2E565" d="M57.74.966H41.126c-.704 0-1.275.571-1.275 1.276v16.614c0 .704.571 1.275 1.275 1.275h16.615c.704 0 1.275-.57 1.275-1.275V2.242c0-.705-.571-1.276-1.276-1.276z"/>
        <path fill="#A4CD39" d="M57.74.966h-3.734c.003.034.005.067.005.1v16.615c0 .704-.57 1.275-1.275 1.275h-12.88c.01.137.044.267.094.388h-.002c.04.096.092.185.152.267l.01.014.06.073.013.015c.024.026.049.052.075.076l.001.001c.028.026.056.05.086.073l.014.01.073.052.026.016.07.04.027.014c.029.015.059.029.09.041a1.229 1.229 0 0 0 .112.04l.03.008a1.307 1.307 0 0 0 .191.038c.012 0 .023.002.035.003.037.004.075.006.113.006H57.74c.705 0 1.276-.57 1.276-1.275V2.242c0-.705-.571-1.276-1.276-1.276z"/>
        <path fill="#000" fill-rule="nonzero" d="M46.42 5.56c0-.306.276-.582.712-.582h2.923c1.847 0 3.301.887 3.301 3.272v.087c0 2.385-1.498 3.301-3.417 3.301h-1.63v3.374c0 .393-.479.597-.944.597-.48 0-.946-.204-.946-.597V5.56zm1.89 1.076v3.52h1.629c.945 0 1.527-.539 1.527-1.673v-.175c0-1.134-.582-1.672-1.527-1.672h-1.63z"/>
        <path fill="#4DB4D4" d="M.853 34.005v8.262c0 .65.383 1.238.976 1.502l3.79 1.684c.321.143.67.217 1.022.217H56.72a2.31 2.31 0 0 0 2.31-2.31v-4.425c0-.777-.212-1.54-.613-2.206l-.27-.447a6.153 6.153 0 0 0-4.07-2.86l-7.786-1.548c-1.577-.314-3.075-1.166-4.407-2.066l-5.643-3.812a12.083 12.083 0 0 0-6.763-2.07H19.12a12.083 12.083 0 0 0-8.528 3.523 12.082 12.082 0 0 1-6.05 3.266l-1.226.256a3.1 3.1 0 0 0-2.464 3.034z"/>
        <path fill="#75DBE9" d="M8.103 33.488c0-.51.285-.977.737-1.212a14.682 14.682 0 0 0 3.6-2.633 9.407 9.407 0 0 1 6.68-2.76h10.358c1.888 0 3.734.564 5.299 1.622l5.642 3.812c.374.252.757.486 1.15.702.518.285.846.825.846 1.417a.419.419 0 0 1-.419.419H9.47a1.367 1.367 0 0 1-1.367-1.367z"/>
        <g fill="#2C5871" transform="translate(5.614 40.117)">
            <circle cx="44.042" cy="4.87" r="4.806"/>
            <circle cx="4.821" cy="4.87" r="4.806"/>
        </g>
        <path fill="#1D4859" d="M13.834 48.386a4.807 4.807 0 0 0 0-6.797l-6.797 6.797a4.806 4.806 0 0 0 6.797 0z"/>
        <circle cx="10.435" cy="44.987" r="1.737" fill="#E1EFFB"/>
        <path fill="#1D4859" d="M53.055 48.386a4.806 4.806 0 0 0 0-6.797l-6.797 6.797a4.806 4.806 0 0 0 6.797 0z"/>
        <circle cx="49.656" cy="44.987" r="1.737" fill="#E1EFFB"/>
        <path fill="#000" fill-rule="nonzero" d="M41.98 32.271c-.37-.203-.734-.425-1.083-.661l-5.643-3.812a10.282 10.282 0 0 0-5.777-1.769H19.12c-2.749 0-5.335 1.07-7.283 3.01a13.825 13.825 0 0 1-3.39 2.48 2.212 2.212 0 0 0-1.197 1.969c0 1.224.996 2.22 2.22 2.22H13A.853.853 0 0 0 13 34H9.47a.514.514 0 0 1-.237-.968 15.529 15.529 0 0 0 3.808-2.786 8.559 8.559 0 0 1 6.08-2.511h2.318V34h-2.834a.853.853 0 0 0 0 1.707h23.391c.702 0 1.272-.57 1.272-1.272 0-.898-.494-1.728-1.289-2.165zm-18.835 1.73v-6.265h6.332c1.725 0 3.393.51 4.822 1.476l5.643 3.812c.392.264.8.514 1.215.742.108.06.198.14.265.236H23.145z"/>
        <path fill="#000" d="M25.26 37.004h-2.636a.853.853 0 0 0 0 1.707h2.635a.853.853 0 0 0 0-1.707z"/>
        <path fill="#000" fill-rule="nonzero" d="M59.147 36.288l-.27-.447a7.022 7.022 0 0 0-4.634-3.256l-2.202-.438V20.984h5.7a2.13 2.13 0 0 0 2.128-2.128V2.242A2.13 2.13 0 0 0 57.74.113H41.126a2.13 2.13 0 0 0-2.128 2.129v6.302a.853.853 0 1 0 1.706 0V2.242c0-.233.19-.422.422-.422h16.615c.232 0 .422.189.422.422v16.614c0 .233-.19.422-.422.422H41.126a.423.423 0 0 1-.422-.422V14.09a.853.853 0 1 0-1.706 0v4.766a2.13 2.13 0 0 0 2.128 2.128h6.463v10.278l-1.132-.225c-1.562-.31-3.086-1.254-4.096-1.936l-5.642-3.812a12.89 12.89 0 0 0-7.242-2.217H19.121c-3.447 0-6.69 1.34-9.13 3.772a11.203 11.203 0 0 1-5.624 3.036l-1.225.256A3.97 3.97 0 0 0 0 34.006v8.261c0 .986.582 1.881 1.483 2.281l3.397 1.51a5.627 5.627 0 0 0 1.554 2.931 5.642 5.642 0 0 0 4.002 1.655 5.642 5.642 0 0 0 5.444-4.121h28.332a5.623 5.623 0 0 0 1.443 2.466 5.623 5.623 0 0 0 4.002 1.658 5.623 5.623 0 0 0 4.002-1.658 5.623 5.623 0 0 0 1.443-2.466h1.618a3.167 3.167 0 0 0 3.163-3.163v-4.425c0-.933-.254-1.848-.736-2.647zm-9.851-15.304h1.039v10.824l-1.04-.207V20.984zM13.23 47.783a3.927 3.927 0 0 1-2.795 1.158 3.927 3.927 0 0 1-2.796-1.158 3.96 3.96 0 0 1-.8-4.437l.015-.035a3.858 3.858 0 0 1 .318-.555l.058-.083.07-.094.057-.072.086-.102c.017-.02.033-.04.05-.058.044-.049.088-.096.135-.143l.011-.012.027-.025c.04-.039.078-.077.118-.113l.032-.028c.04-.035.08-.07.122-.104l.012-.009a3.96 3.96 0 0 1 4.975.005l.005.004c.045.036.088.073.13.111l.024.02a3.966 3.966 0 0 1 .295.297l.062.072.074.089a4.022 4.022 0 0 1 .213.29l.015.022a3.96 3.96 0 0 1-.513 4.96zm39.221 0a3.928 3.928 0 0 1-2.795 1.158 3.927 3.927 0 0 1-2.796-1.158 3.96 3.96 0 0 1-.211-5.36c.02-.024.04-.049.062-.073a3.927 3.927 0 0 1 2.945-1.316A3.927 3.927 0 0 1 52.6 42.35a3.733 3.733 0 0 1 .215.262l.043.058a3.9 3.9 0 0 1 .106.153 3.96 3.96 0 0 1-.513 4.96zm5.725-4.423c0 .803-.654 1.457-1.457 1.457h-1.405a5.588 5.588 0 0 0-1.256-3.386l-.015-.02-.15-.175-.04-.044a5.785 5.785 0 0 0-.167-.177l-.028-.03a5.625 5.625 0 0 0-4.002-1.657 5.62 5.62 0 0 0-4.002 1.658l-.028.029a5.821 5.821 0 0 0-.168.177l-.038.043a5.823 5.823 0 0 0-.151.177l-.015.018a5.59 5.59 0 0 0-1.257 3.387H16.094a5.59 5.59 0 0 0-1.26-3.39l-.01-.014a5.802 5.802 0 0 0-.16-.186l-.03-.034a5.67 5.67 0 0 0-1.084-.931 5.655 5.655 0 0 0-3.114-.931 5.642 5.642 0 0 0-4.186 1.848l-.052.059a5.979 5.979 0 0 0-.3.367l-.037.05a5.637 5.637 0 0 0-.297.452l-.008.013a5.59 5.59 0 0 0-.129.231l-.003.007a5.624 5.624 0 0 0-.59 1.813L2.177 42.99a.791.791 0 0 1-.47-.722v-8.262c0-1.057.752-1.982 1.787-2.199l1.224-.256a12.906 12.906 0 0 0 6.478-3.497 11.158 11.158 0 0 1 7.926-3.275h10.357c2.249 0 4.422.666 6.286 1.925l5.643 3.812c1.132.765 2.853 1.824 4.718 2.195l7.786 1.549a5.312 5.312 0 0 1 3.506 2.463l.27.447c.32.533.49 1.144.49 1.766v4.425z"/>
        <path fill="#000" fill-rule="nonzero" d="M10.436 42.398c-.692 0-1.343.27-1.832.758-.489.49-.758 1.14-.758 1.832 0 .691.27 1.342.758 1.83.49.49 1.14.76 1.832.76a2.593 2.593 0 0 0 1.831-4.421 2.573 2.573 0 0 0-1.831-.76zm.624 3.215a.878.878 0 0 1-.624.258.877.877 0 0 1-.625-.259.878.878 0 0 1-.26-.625c0-.236.093-.458.26-.624a.878.878 0 0 1 .625-.26.885.885 0 0 1 .625 1.509zM49.657 42.398c-.692 0-1.342.269-1.832.758a2.593 2.593 0 0 0 0 3.663c.49.49 1.14.759 1.832.759.692 0 1.342-.27 1.831-.759.49-.49.759-1.14.759-1.831 0-.692-.27-1.343-.759-1.832a2.573 2.573 0 0 0-1.831-.758zm.625 3.215a.878.878 0 0 1-.625.258.885.885 0 1 1 .625-.259z"/>
    </g>
</svg>
