<svg xmlns="http://www.w3.org/2000/svg" width="60" height="60" viewBox="0 0 60 60">
    <g fill="none" fill-rule="evenodd">
        <path fill="#C7CACC" d="M47.93 20.97H7.989a3.994 3.994 0 0 0-3.994 3.994v33.95h47.93v-33.95a3.994 3.994 0 0 0-3.993-3.994z"/>
        <path fill="#75DBE9" d="M47.93 56.918V26.96a1.997 1.997 0 0 0-1.996-1.997H9.986a1.997 1.997 0 0 0-1.998 1.997v29.957h39.943z"/>
        <path fill="#4DB4D4" d="M47.93 56.918V26.96a1.997 1.997 0 0 0-1.996-1.997h-1.997L11.983 56.918H47.93z"/>
        <path fill="#87CED9" d="M13.98 36.947h27.96v7.988H13.98z"/>
        <path fill="#126099" d="M16.975 39.942h1.997v1.997h-1.997zM20.97 39.942h1.997v1.997H20.97zM24.964 39.942h1.997v1.997h-1.997zM28.958 39.942h1.997v1.997h-1.997z"/>
        <path fill="#F8C14E" d="M33.315 15.977h23.24a2.36 2.36 0 0 1 2.36 2.36v12.256a2.36 2.36 0 0 1-2.36 2.36h-23.24a2.36 2.36 0 0 1-2.36-2.36V18.336a2.36 2.36 0 0 1 2.36-2.36z"/>
        <path fill="#DADDDF" d="M44.935.999c-6.066 0-10.984 4.917-10.984 10.984v3.994h3.994v-3.994a6.99 6.99 0 1 1 13.98 0v3.994h3.994v-3.994C55.92 5.916 51.001.999 44.935.999z"/>
        <path fill="#87CED9" d="M17.974 15.977h1.997v1.997h-1.997zM17.974 11.983h1.997v1.997h-1.997zM17.974 7.988h1.997v1.997h-1.997zM17.974 3.994h1.997v1.997h-1.997zM21.968 3.994h1.997v1.997h-1.997zM25.962 3.994h1.997v1.997h-1.997zM29.957 3.994h1.997v1.997h-1.997z"/>
        <path fill="#DADDDF" d="M51.925 58.915H3.995a2.995 2.995 0 0 1-2.996-2.996v-2.995h20.97c.683 0 1.31.386 1.615.998.306.612.932.999 1.616.999h5.755c.684 0 1.31-.387 1.616-.999a1.806 1.806 0 0 1 1.616-.998H54.92v2.995a2.995 2.995 0 0 1-2.996 2.996z"/>
        <path fill="#FFA230" d="M57.328 16.117c-6.771 10.085-17.83 14.509-25.348 16.42.392.27.858.415 1.335.415h23.24a2.36 2.36 0 0 0 2.36-2.36V18.337a2.353 2.353 0 0 0-1.587-2.22z"/>
        <path fill="#556575" d="M46.932 23.965a1.997 1.997 0 1 0-2.996 1.72v3.273h1.998v-3.272a1.99 1.99 0 0 0 .998-1.72z"/>
        <path fill="#C7CACC" d="M33.951 13.98h3.994v1.997h-3.994zM51.925 13.98h3.994v1.997h-3.994z"/>
        <path fill="#71C4D1" d="M13.98 36.947h27.96v1.997H13.98z"/>
        <path fill="#000" fill-rule="nonzero" d="M3.994 59.913h47.931a3.994 3.994 0 0 0 3.994-3.994v-2.995a.999.999 0 0 0-.998-.999h-1.997V35.948h-1.997v15.977h-1.998V35.948h-1.997v15.977H34.187a2.789 2.789 0 0 0-2.509 1.55.8.8 0 0 1-.723.447H25.2a.799.799 0 0 1-.722-.446 2.79 2.79 0 0 0-2.51-1.551H8.987V26.961c0-.551.447-.998.999-.998H27.96v-1.998H9.986a2.995 2.995 0 0 0-2.996 2.996v24.964H4.993V24.964a2.995 2.995 0 0 1 2.995-2.996H27.96v-1.997H7.988a4.998 4.998 0 0 0-4.992 4.993v26.961H.999a.999.999 0 0 0-.999.999v2.995a3.994 3.994 0 0 0 3.994 3.994zm-1.997-5.991h19.971a.805.805 0 0 1 .723.445A2.787 2.787 0 0 0 25.2 55.92h5.755a2.788 2.788 0 0 0 2.51-1.552.799.799 0 0 1 .722-.445h19.735v1.997a1.997 1.997 0 0 1-1.997 1.997H3.995a1.997 1.997 0 0 1-1.998-1.997v-1.997z"/>
        <path fill="#000" fill-rule="nonzero" d="M12.981 36.947v7.988c0 .551.448.999.999.999h27.96a.999.999 0 0 0 .998-.999v-7.988a.999.999 0 0 0-.999-.999H13.98a.999.999 0 0 0-.998.999zm1.997.998h25.963v5.992H14.978v-5.992z"/>
        <path fill="#000" d="M16.975 39.942h1.997v1.997h-1.997zM20.97 39.942h1.997v1.997H20.97zM24.964 39.942h1.997v1.997h-1.997zM28.958 39.942h1.997v1.997h-1.997z"/>
        <path fill="#000" fill-rule="nonzero" d="M56.918 15.015v-3.032C56.918 5.365 51.552 0 44.935 0c-6.617 0-11.983 5.365-11.983 11.983v3.032a3.35 3.35 0 0 0-2.995 3.32v12.259a3.362 3.362 0 0 0 3.358 3.357h23.24a3.362 3.362 0 0 0 3.359-3.357V18.335a3.35 3.35 0 0 0-2.996-3.32zm-21.969-3.032c0-5.515 4.471-9.986 9.986-9.986 5.515 0 9.986 4.47 9.986 9.986v2.995h-1.998v-2.995a7.989 7.989 0 0 0-15.976 0v2.995h-1.998v-2.995zm3.995 2.995v-2.995a5.991 5.991 0 1 1 11.983 0v2.995H38.944zm18.972 15.616a1.362 1.362 0 0 1-1.36 1.36H33.314a1.362 1.362 0 0 1-1.361-1.36V18.335c0-.75.61-1.359 1.36-1.36h23.241c.751.001 1.36.61 1.361 1.36v12.259z"/>
        <path fill="#000" fill-rule="nonzero" d="M44.935 20.97a2.989 2.989 0 0 0-.998 5.807v2.181h1.997v-2.18a2.989 2.989 0 0 0-.999-5.808zm0 3.994a.999.999 0 1 1 0-1.998.999.999 0 0 1 0 1.998z"/>
        <path fill="#000" d="M17.974 15.977h1.997v1.997h-1.997zM17.974 11.983h1.997v1.997h-1.997zM17.974 7.988h1.997v1.997h-1.997zM17.974 3.994h1.997v1.997h-1.997zM21.968 3.994h1.997v1.997h-1.997zM25.962 3.994h1.997v1.997h-1.997zM29.957 3.994h1.997v1.997h-1.997z"/>
    </g>
</svg>
