<svg xmlns="http://www.w3.org/2000/svg" width="24" height="24" viewBox="0 0 24 24"><defs><style>.a{fill:#fff;stroke:#707070;opacity:0;}.b{fill:#ffd000;}.c{stroke:none;}.d{fill:none;}</style></defs><g class="a"><rect class="c" width="24" height="24"/><rect class="d" x="0.5" y="0.5" width="23" height="23"/></g><path class="b" d="M12.8,37.534l.909-7.256-5-5.367A.729.729,0,0,1,9.084,23.7l7.2-1.436,3.562-6.425a.78.78,0,0,1,1.288,0L24.7,22.265,31.9,23.7a.692.692,0,0,1,.379,1.209l-5,5.367.909,7.256a.743.743,0,0,1-1.061.756l-6.594-3.1-6.67,3.1A.766.766,0,0,1,12.8,37.534Z" transform="translate(-8.517 -14.928)"/></svg>