<svg xmlns="http://www.w3.org/2000/svg" width="58" height="58" viewBox="0 0 58 58">
    <g fill="none" fill-rule="evenodd">
        <path fill="#FBE47C" stroke="#000" stroke-width="2" d="M3.414 11.62V57H55.55V11.621z"/>
        <path fill="#000" d="M5.345 29h27.034v22.207H5.345z"/>
        <path fill="#56B9B7" d="M7.276 30.931h23.172v18.345H7.276z"/>
        <path fill="#F37A84" stroke="#000" stroke-width="2" d="M15.966 11.62H2.813a.275.275 0 0 1-.264-.35L6.47 2.75A3.007 3.007 0 0 1 9.203 1h8.694l-1.931 10.62zM43 11.62H29.483V1h11.586z"/>
        <g stroke="#000" stroke-width="2">
            <path fill="#F7B83E" d="M22.724 25.138a6.759 6.759 0 0 1-6.758-6.759v-6.758h13.517v6.758a6.759 6.759 0 0 1-6.759 6.759zM49.759 25.138A6.759 6.759 0 0 1 43 18.379v-6.758h13.414c.057 0 .103.046.103.103v6.655a6.759 6.759 0 0 1-6.758 6.759z"/>
            <path fill="#F2725D" d="M9.207 25.138a6.759 6.759 0 0 1-6.759-6.759v-6.486c0-.15.122-.272.273-.272h13.245v6.758a6.759 6.759 0 0 1-6.76 6.759zM36.241 25.138a6.759 6.759 0 0 1-6.758-6.759v-6.758H43v6.758a6.759 6.759 0 0 1-6.759 6.759z"/>
        </g>
        <path fill="#F5A623" fill-opacity=".7" stroke="#000" stroke-width="2" d="M29.483 11.62H15.966L17.896 1h11.587zM56.174 11.62H43L41.069 1h8.693c1.176 0 2.242.684 2.734 1.751l3.928 8.54a.259.259 0 0 1-.25.33z"/>
        <path fill="#000" d="M36.241 29h15.448v27H36.241z"/>
        <path fill="#56B9B7" d="M38.172 30.931h11.586v24.138H38.172z"/>
        <path fill="#FFF" fill-opacity=".7" d="M47.828 46.38a.965.965 0 0 1-.966-.966v-2.897a.965.965 0 1 1 1.931 0v2.897a.965.965 0 0 1-.965.965z"/>
        <g fill="#FFF" fill-opacity=".7">
            <path d="M17.897 37.69a.963.963 0 0 0 .682-.283l3.862-3.862a.964.964 0 1 0-1.365-1.366l-3.862 3.863a.964.964 0 0 0 .683 1.648zM17.897 42.517a.963.963 0 0 0 .682-.283l1.931-1.93a.964.964 0 1 0-1.365-1.366l-1.931 1.931a.964.964 0 0 0 .683 1.648zM21.073 37.004c-.175.183-.28.435-.28.686a.97.97 0 0 0 1.651.685c.174-.183.28-.434.28-.685 0-.251-.106-.503-.28-.686-.357-.357-1.014-.357-1.37 0zM23.007 36.441a.963.963 0 0 0 1.365 0l2.897-2.896a.964.964 0 1 0-1.365-1.366l-2.897 2.897a.964.964 0 0 0 0 1.365zM25.904 37.007l-8.69 8.69a.964.964 0 1 0 1.365 1.365l8.69-8.69a.964.964 0 1 0-1.365-1.365zM29.203 35.073c-.357-.357-1.014-.357-1.371 0-.175.183-.28.435-.28.686 0 .25.105.502.28.685.182.174.434.28.685.28.251 0 .502-.106.686-.28.174-.183.28-.434.28-.685 0-.251-.106-.503-.28-.686z"/>
        </g>
        <path fill="#D99F5E" stroke="#000" d="M8.665 57.5h-6.64l-.954-5.723a.92.92 0 0 1 .906-1.07h7.82L8.665 57.5z"/>
        <path fill="#7F6E5D" fill-opacity=".7" stroke="#000" d="M4.879 41.086h1v9.621h-1z"/>
        <path fill="#2F8E4E" stroke="#000" d="M9.388 36.415c.294-.741.503-1.569.345-2.36a2.136 2.136 0 0 0-.44-.931 1.992 1.992 0 0 1-.397-1.652 2.545 2.545 0 0 0-.209-1.662c-.466-.899-1.394-1.402-2.316-1.533-.678-.097-1.426.007-1.928.524l-.597.516c-.677.32-1.197 1.027-1.346 1.831-.08.437-.05.894.075 1.317.187.63.032 1.312-.327 1.842-.807 1.194-1.02 2.904-.425 4.257.075.172.172.342.286.496.39.524.537 1.22.374 1.877-.038.15-.063.305-.077.458-.064.702.079 1.405.224 2.093.15.714.336 1.486.857 1.934.707.607 1.73.371 2.54-.046 1.143-.59 2.2-1.561 2.604-2.894a3.612 3.612 0 0 0-.136-2.408c-.318-.738-.318-1.614.143-2.25.308-.424.554-.913.75-1.409z"/>
    </g>
</svg>
