<svg xmlns="http://www.w3.org/2000/svg" width="44" height="60" viewBox="0 0 44 60">
    <g fill="none" fill-rule="evenodd">
        <path fill="#FAD944" fill-opacity=".6" d="M39.965 43c1.743-4.09 1.295-10.18-1.424-13.69A12.28 12.28 0 0 1 35.982 22v-7c0-7.732-6.241-14-13.94-14-7.7 0-13.94 6.268-13.94 14v7.35a10.693 10.693 0 0 1-2.231 6.53l-.638.82C2.724 32.94 2.296 39.33 4.118 43h35.847z"/>
        <path fill="#F5A623" fill-opacity=".6" d="M13.054 12.185A21.492 21.492 0 0 1 15.25 3a13.917 13.917 0 0 0-7.16 12.167v7.306a10.606 10.606 0 0 1-2.226 6.491l-.635.815C2.725 33 2.298 39.352 4.115 43H21l-4.966-13.916c-1.37-4.792-2.731-10-2.98-14.98v-1.92z"/>
        <path fill="#FEDAC6" fill-opacity=".6" d="M43 60V48.06a8 8 0 0 0-7.002-7.94l-7.241-.9a2 2 0 0 1-1.75-2V32H16.993v5.23a2 2 0 0 1-1.75 2l-7.242.9A8 8 0 0 0 1 48.07V60h42z"/>
        <g fill="#1BD2F2" fill-opacity=".6">
            <path d="M13 39l-5 .635c-4.001.516-7.001 4.002-7 8.134V60h12V39zM36 39.635L31 39v21h12V47.769c.001-4.132-2.999-7.618-7-8.134z"/>
        </g>
        <path fill="#329AC7" fill-opacity=".6" d="M5 41a8.07 8.07 0 0 0-4 6.971V60h4V41z"/>
        <path fill="#EBEBEB" fill-opacity=".6" d="M29.8 39L22 52.881 14.2 39l-1.2.153V60h18V39.153z"/>
        <path fill="#DBDBDB" fill-opacity=".6" d="M17 43.729L14.2 39l-1.2.153V60h4z"/>
        <path fill="#F5C4B0" fill-opacity=".6" d="M27 36.363V32H17v4.363c3.033 2.183 6.967 2.183 10 0z"/>
        <g fill="#FEDAC6" fill-opacity=".6">
            <path d="M34 17h-2v6h2a3 3 0 1 0 0-6z"/>
            <path d="M33 17l-.41 6.93A10.7 10.7 0 0 1 21.91 34a10.71 10.71 0 0 1-10.67-9.88L11 21s10-6 15-13c0 0 3 6 7 9z"/>
        </g>
        <path fill="#F5C4B0" fill-opacity=".6" d="M14.568 19C12.478 20.514 11 21.416 11 21.416l.229 3.027C11.505 28.14 13.707 31.407 17 33a30.09 30.09 0 0 1-2.432-14z"/>
        <g fill="#000">
            <circle cx="16" cy="19" r="2"/>
            <circle cx="28" cy="19" r="2"/>
            <path d="M23 25h-3c-.347 0-.668-.165-.85-.435a.854.854 0 0 1-.045-.893l2-3.672 1.79.822-1.277 2.342H23V25z"/>
            <path fill-rule="nonzero" d="M21.91 35c-6.072-.004-11.196-4.749-11.667-10.802l-.24-3.12a1.002 1.002 0 0 1 .482-.935c.098-.059 9.883-5.979 14.701-12.724a.992.992 0 0 1 .892-.416c.35.027.659.235.816.55.029.057 2.947 5.827 6.706 8.647a.995.995 0 0 1 .398.86l-.41 6.929C33.225 30.162 28.095 34.999 21.91 35zM12 21.613l.194 2.494c.391 4.983 4.656 8.889 9.709 8.893 5.145-.001 9.413-3.982 9.717-9.063l.38-6.36C29.214 15.338 26.978 11.9 25.87 10 21.272 15.651 14.03 20.353 12 21.613z"/>
            <path d="M3.203 42a13.3 13.3 0 0 1 1.206-13.158l.668-.854A9.583 9.583 0 0 0 7.1 22.13v-7.277C7.1 6.663 13.806 0 22.05 0 30.293 0 37 6.663 37 14.853v2.97h-1.993v-2.97c0-7.098-5.813-12.873-12.957-12.873-7.144 0-12.957 5.775-12.957 12.873v7.278a11.564 11.564 0 0 1-2.442 7.074l-.639.813c-2.272 3.233-2.665 7.526-.995 11.16L3.203 42zM40.798 42l-1.799-.779.157-.362a11.005 11.005 0 0 0-1.432-11.08A13.057 13.057 0 0 1 35 22.031L36.96 22c.038 2.369.858 4.705 2.311 6.577a12.968 12.968 0 0 1 1.684 13.057l-.157.366z"/>
            <path d="M34 24h-1v-2h1c1.103 0 2-.897 2-2s-.897-2-2-2h-1v-2h1c2.206 0 4 1.794 4 4s-1.794 4-4 4zM20.7 29H20v-2.073h.7c1.202 0 2.405-.32 3.479-.927L25 27.854A8.767 8.767 0 0 1 20.7 29zM22 54c-.364 0-.7-.186-.88-.488L13 39.96l1.762-.96L22 51.08 29.238 39l1.762.96-8.12 13.552c-.18.302-.516.488-.88.488z"/>
            <path d="M2 60H0V48.06c-.001-4.526 3.386-8.366 7.879-8.932l7.245-.9c.502-.063.878-.493.875-1V33H18v4.22a2.997 2.997 0 0 1-2.626 2.992l-7.245.9a7.014 7.014 0 0 0-6.128 6.948V60zM44 60h-2.001V48.06a7.012 7.012 0 0 0-6.129-6.947l-7.241-.9a3 3 0 0 1-2.629-3V33h2.001v4.22c-.004.515.372.945.875 1.008l7.243.9C40.613 39.693 44 43.533 44 48.06V60z"/>
            <path d="M12 39h2v21h-2zM30 39h2v21h-2z"/>
        </g>
    </g>
</svg>
