<svg width="116" height="106" viewBox="0 0 116 106" fill="none" xmlns="http://www.w3.org/2000/svg">
<mask id="path-1-inside-1" fill="white">
<path d="M29.3232 0C27.6919 0.0128344 26.1105 0.557298 24.8247 1.5488C23.539 2.5403 22.6209 3.92332 22.2131 5.48299L14.0954 34.7256C13.1329 33.2843 11.8592 32.0712 10.3657 31.1734C8.87215 30.2757 7.19588 29.7154 5.45714 29.533C4.80256 29.533 4.1748 29.7897 3.71194 30.2467C3.24909 30.7037 2.98906 31.3235 2.98906 31.9698C2.98906 32.6161 3.24909 33.236 3.71194 33.693C4.1748 34.15 4.80256 34.4067 5.45714 34.4067C7.92521 34.4067 11.0074 38.4798 12.3649 40.9654L12.0949 41.4271H11.5984C10.1047 41.4185 8.64333 41.8562 7.4062 42.6828C6.16907 43.5093 5.21406 44.6859 4.66658 46.0581L1.33082 54.2921C0.436997 56.5018 -0.0148073 58.8616 0.000370068 61.241V73.1066C0.000370068 75.0455 0.780456 76.905 2.16902 78.276C3.55758 79.647 5.44088 80.4172 7.4046 80.4172H8.59044V88.1658C8.59031 89.0723 8.77187 89.97 9.12466 90.807C9.47744 91.644 9.99448 92.4038 10.646 93.0427C11.2975 93.6815 12.0706 94.1868 12.9207 94.5293C13.7708 94.8719 14.6812 95.0449 15.5994 95.0385H23.8906C24.8047 95.0386 25.7099 94.8609 26.5545 94.5156C27.399 94.1702 28.1664 93.664 28.8128 93.0258C29.4592 92.3876 29.9719 91.6299 30.3217 90.796C30.6715 89.9621 30.8514 89.0683 30.8513 88.1658V80.4172H64.1704C64.825 80.4172 65.4527 80.1605 65.9156 79.7035C66.3784 79.2465 66.6385 78.6266 66.6385 77.9803C66.6385 77.334 66.3784 76.7142 65.9156 76.2572C65.4527 75.8002 64.825 75.5435 64.1704 75.5435H7.4046C6.75003 75.5435 6.12226 75.2867 5.65941 74.8297C5.19655 74.3727 4.93652 73.7529 4.93652 73.1066V61.241V59.9702H14.4618C15.1243 59.9699 15.7737 60.1525 16.3368 60.4973C16.8998 60.8421 17.354 61.3355 17.6481 61.9216L20.3138 67.1619L24.7293 64.9678L22.2131 59.7275C21.5115 58.3308 20.4272 57.1564 19.0834 56.3378C17.7396 55.5191 16.1902 55.0891 14.6112 55.0965H6.3682L9.27976 47.9333C9.44808 47.4581 9.76137 47.0459 10.1766 46.7536C10.5918 46.4613 11.0885 46.3031 11.5984 46.3008H96.9977C97.5031 46.2929 97.9988 46.4383 98.4178 46.7175C98.8368 46.9967 99.1589 47.3962 99.3405 47.862L102.647 56.0484H81.4469C78.8286 56.0484 76.3176 57.0753 74.4661 58.9034C72.6147 60.7314 71.5746 63.2107 71.5746 65.7959V82.9779C71.5788 86.9632 72.7446 90.8632 74.9328 94.212C77.1211 97.5609 80.2392 100.217 83.915 101.864L92.7268 105.786C93.0451 105.927 93.3901 106 93.7391 106C94.0881 106 94.4331 105.927 94.7514 105.786L103.66 101.935C107.335 100.289 110.454 97.6323 112.642 94.2834C114.83 90.9345 115.996 87.0346 116 83.0492V65.7959C115.997 63.5174 115.186 61.3118 113.707 59.5624C112.229 57.813 110.176 56.6302 107.906 56.2197C107.719 55.5655 107.496 54.9219 107.236 54.2921L103.905 46.1295C103.371 44.7477 102.425 43.5585 101.191 42.7189C99.958 41.8794 98.4958 41.4289 96.9977 41.4271H96.8724C98.0077 39.1364 101.191 34.3829 104.079 34.3829C104.734 34.3829 105.361 34.1262 105.824 33.6692C106.287 33.2122 106.547 32.5924 106.547 31.946C106.547 31.2997 106.287 30.6799 105.824 30.2229C105.361 29.7659 104.734 29.5092 104.079 29.5092C100.105 29.5092 96.8722 32.7043 94.8237 35.4824L86.3831 5.48299C85.9753 3.92332 85.0572 2.5403 83.7714 1.5488C82.4857 0.557298 80.9043 0.0128344 79.2729 0H29.3232ZM29.3811 4.87377C29.3859 4.87376 29.3907 4.87376 29.3956 4.87377H79.2729C79.8334 4.85626 80.3832 5.02772 80.8318 5.35993C81.2804 5.69213 81.6011 6.16527 81.741 6.70144L91.3192 41.4271H17.2769L26.9275 6.70144C27.0668 6.16772 27.3853 5.69642 27.831 5.36447C28.2766 5.03253 28.8231 4.85955 29.3811 4.87377ZM81.3264 60.9221C81.3666 60.9217 81.4067 60.9217 81.4469 60.9221H106.128C107.437 60.9221 108.692 61.4356 109.618 62.3496C110.544 63.2636 111.064 64.5033 111.064 65.7959V82.9779C111.072 86.037 110.183 89.0331 108.506 91.6053C106.829 94.1776 104.435 96.2161 101.611 97.4754L93.7873 100.959L85.9637 97.4754C83.1513 96.2211 80.7642 94.1936 79.0879 91.6353C77.4116 89.0771 76.5169 86.0963 76.5108 83.0492V65.7959C76.5104 64.5237 77.0139 63.3017 77.9137 62.391C78.8135 61.4804 80.0383 60.9532 81.3264 60.9221ZM101.548 73.9347C101.039 73.9674 100.552 74.1553 100.155 74.4726L100.179 74.3726L91.8639 81.5643L87.2941 77.9803C87.0423 77.7714 86.7506 77.6143 86.4364 77.5182C86.1221 77.4222 85.7916 77.3891 85.4642 77.421C85.1368 77.4529 84.8192 77.5491 84.53 77.7039C84.2408 77.8588 83.9858 78.0691 83.7802 78.3226C83.5745 78.5761 83.4223 78.8677 83.3324 79.1802C83.2425 79.4926 83.2167 79.8197 83.2567 80.1421C83.2966 80.4645 83.4015 80.7758 83.565 81.0576C83.7286 81.3394 83.9475 81.5861 84.209 81.7832L90.3792 86.657C90.8229 87.0225 91.3825 87.2227 91.9603 87.2227C92.5382 87.2227 93.0977 87.0225 93.5415 86.657L103.414 78.1279C103.78 77.7823 104.029 77.3338 104.129 76.8434C104.228 76.353 104.172 75.8443 103.968 75.3864C103.764 74.9285 103.423 74.5436 102.99 74.2839C102.557 74.0242 102.054 73.9023 101.548 73.9347ZM13.5748 81.7071H25.9152V88.2419C25.916 88.5038 25.8639 88.7633 25.7621 89.0052C25.6603 89.247 25.5108 89.4665 25.3223 89.6507C24.9411 90.0234 24.427 90.2336 23.8906 90.2362H15.5994C15.0629 90.2336 14.5489 90.0234 14.1677 89.6507C13.9792 89.4665 13.8296 89.247 13.7278 89.0052C13.626 88.7633 13.574 88.5038 13.5748 88.2419V81.7071Z"/>
</mask>
<path d="M29.3232 0C27.6919 0.0128344 26.1105 0.557298 24.8247 1.5488C23.539 2.5403 22.6209 3.92332 22.2131 5.48299L14.0954 34.7256C13.1329 33.2843 11.8592 32.0712 10.3657 31.1734C8.87215 30.2757 7.19588 29.7154 5.45714 29.533C4.80256 29.533 4.1748 29.7897 3.71194 30.2467C3.24909 30.7037 2.98906 31.3235 2.98906 31.9698C2.98906 32.6161 3.24909 33.236 3.71194 33.693C4.1748 34.15 4.80256 34.4067 5.45714 34.4067C7.92521 34.4067 11.0074 38.4798 12.3649 40.9654L12.0949 41.4271H11.5984C10.1047 41.4185 8.64333 41.8562 7.4062 42.6828C6.16907 43.5093 5.21406 44.6859 4.66658 46.0581L1.33082 54.2921C0.436997 56.5018 -0.0148073 58.8616 0.000370068 61.241V73.1066C0.000370068 75.0455 0.780456 76.905 2.16902 78.276C3.55758 79.647 5.44088 80.4172 7.4046 80.4172H8.59044V88.1658C8.59031 89.0723 8.77187 89.97 9.12466 90.807C9.47744 91.644 9.99448 92.4038 10.646 93.0427C11.2975 93.6815 12.0706 94.1868 12.9207 94.5293C13.7708 94.8719 14.6812 95.0449 15.5994 95.0385H23.8906C24.8047 95.0386 25.7099 94.8609 26.5545 94.5156C27.399 94.1702 28.1664 93.664 28.8128 93.0258C29.4592 92.3876 29.9719 91.6299 30.3217 90.796C30.6715 89.9621 30.8514 89.0683 30.8513 88.1658V80.4172H64.1704C64.825 80.4172 65.4527 80.1605 65.9156 79.7035C66.3784 79.2465 66.6385 78.6266 66.6385 77.9803C66.6385 77.334 66.3784 76.7142 65.9156 76.2572C65.4527 75.8002 64.825 75.5435 64.1704 75.5435H7.4046C6.75003 75.5435 6.12226 75.2867 5.65941 74.8297C5.19655 74.3727 4.93652 73.7529 4.93652 73.1066V61.241V59.9702H14.4618C15.1243 59.9699 15.7737 60.1525 16.3368 60.4973C16.8998 60.8421 17.354 61.3355 17.6481 61.9216L20.3138 67.1619L24.7293 64.9678L22.2131 59.7275C21.5115 58.3308 20.4272 57.1564 19.0834 56.3378C17.7396 55.5191 16.1902 55.0891 14.6112 55.0965H6.3682L9.27976 47.9333C9.44808 47.4581 9.76137 47.0459 10.1766 46.7536C10.5918 46.4613 11.0885 46.3031 11.5984 46.3008H96.9977C97.5031 46.2929 97.9988 46.4383 98.4178 46.7175C98.8368 46.9967 99.1589 47.3962 99.3405 47.862L102.647 56.0484H81.4469C78.8286 56.0484 76.3176 57.0753 74.4661 58.9034C72.6147 60.7314 71.5746 63.2107 71.5746 65.7959V82.9779C71.5788 86.9632 72.7446 90.8632 74.9328 94.212C77.1211 97.5609 80.2392 100.217 83.915 101.864L92.7268 105.786C93.0451 105.927 93.3901 106 93.7391 106C94.0881 106 94.4331 105.927 94.7514 105.786L103.66 101.935C107.335 100.289 110.454 97.6323 112.642 94.2834C114.83 90.9345 115.996 87.0346 116 83.0492V65.7959C115.997 63.5174 115.186 61.3118 113.707 59.5624C112.229 57.813 110.176 56.6302 107.906 56.2197C107.719 55.5655 107.496 54.9219 107.236 54.2921L103.905 46.1295C103.371 44.7477 102.425 43.5585 101.191 42.7189C99.958 41.8794 98.4958 41.4289 96.9977 41.4271H96.8724C98.0077 39.1364 101.191 34.3829 104.079 34.3829C104.734 34.3829 105.361 34.1262 105.824 33.6692C106.287 33.2122 106.547 32.5924 106.547 31.946C106.547 31.2997 106.287 30.6799 105.824 30.2229C105.361 29.7659 104.734 29.5092 104.079 29.5092C100.105 29.5092 96.8722 32.7043 94.8237 35.4824L86.3831 5.48299C85.9753 3.92332 85.0572 2.5403 83.7714 1.5488C82.4857 0.557298 80.9043 0.0128344 79.2729 0H29.3232ZM29.3811 4.87377C29.3859 4.87376 29.3907 4.87376 29.3956 4.87377H79.2729C79.8334 4.85626 80.3832 5.02772 80.8318 5.35993C81.2804 5.69213 81.6011 6.16527 81.741 6.70144L91.3192 41.4271H17.2769L26.9275 6.70144C27.0668 6.16772 27.3853 5.69642 27.831 5.36447C28.2766 5.03253 28.8231 4.85955 29.3811 4.87377ZM81.3264 60.9221C81.3666 60.9217 81.4067 60.9217 81.4469 60.9221H106.128C107.437 60.9221 108.692 61.4356 109.618 62.3496C110.544 63.2636 111.064 64.5033 111.064 65.7959V82.9779C111.072 86.037 110.183 89.0331 108.506 91.6053C106.829 94.1776 104.435 96.2161 101.611 97.4754L93.7873 100.959L85.9637 97.4754C83.1513 96.2211 80.7642 94.1936 79.0879 91.6353C77.4116 89.0771 76.5169 86.0963 76.5108 83.0492V65.7959C76.5104 64.5237 77.0139 63.3017 77.9137 62.391C78.8135 61.4804 80.0383 60.9532 81.3264 60.9221ZM101.548 73.9347C101.039 73.9674 100.552 74.1553 100.155 74.4726L100.179 74.3726L91.8639 81.5643L87.2941 77.9803C87.0423 77.7714 86.7506 77.6143 86.4364 77.5182C86.1221 77.4222 85.7916 77.3891 85.4642 77.421C85.1368 77.4529 84.8192 77.5491 84.53 77.7039C84.2408 77.8588 83.9858 78.0691 83.7802 78.3226C83.5745 78.5761 83.4223 78.8677 83.3324 79.1802C83.2425 79.4926 83.2167 79.8197 83.2567 80.1421C83.2966 80.4645 83.4015 80.7758 83.565 81.0576C83.7286 81.3394 83.9475 81.5861 84.209 81.7832L90.3792 86.657C90.8229 87.0225 91.3825 87.2227 91.9603 87.2227C92.5382 87.2227 93.0977 87.0225 93.5415 86.657L103.414 78.1279C103.78 77.7823 104.029 77.3338 104.129 76.8434C104.228 76.353 104.172 75.8443 103.968 75.3864C103.764 74.9285 103.423 74.5436 102.99 74.2839C102.557 74.0242 102.054 73.9023 101.548 73.9347ZM13.5748 81.7071H25.9152V88.2419C25.916 88.5038 25.8639 88.7633 25.7621 89.0052C25.6603 89.247 25.5108 89.4665 25.3223 89.6507C24.9411 90.0234 24.427 90.2336 23.8906 90.2362H15.5994C15.0629 90.2336 14.5489 90.0234 14.1677 89.6507C13.9792 89.4665 13.8296 89.247 13.7278 89.0052C13.626 88.7633 13.574 88.5038 13.5748 88.2419V81.7071Z" fill="#FFD000" stroke="#0069E7" stroke-width="2" mask="url(#path-1-inside-1)"/>
</svg>
