<svg className="ipiranga" xmlns="http://www.w3.org/2000/svg" viewBox="0 0 150 150">
    <path d="M0 0h150v150H0V0z" fill="none"/>
    <path d="M116.6 15.4H35.9c-10.4 0-18.8 8.4-18.8 18.8v80.7c0 10.4 8.4 18.8 18.8 18.8h80.7c10.4 0 18.8-8.4 18.8-18.8V34.2c-.1-10.4-8.5-18.8-18.8-18.8z" fill="#f9d537"/>
    <path d="M71.3 40.8c-14.9 0-27.4 10-30.8 24.5l-9.9 42.6h24.8l27.7-40.8h13.2l-10.4 41.5 3.2-.5c10.8-1.7 19-9.1 21.6-19.7l11.8-47.7H71.3zm19.1 20.3l-5.9-14.5H105L90.4 61.1z" fill="#2163a2"/>
</svg>