<svg xmlns="http://www.w3.org/2000/svg" width="73" height="30" viewBox="0 0 73 30">
    <g fill="none" fill-rule="evenodd">
        <path fill="#1BD2F2" d="M61.52 9.003h10.73v11.78h-5.886v-2.552h3.178v-6.875H61.52z"/>
        <path fill="#A4CD39" d="M63.973 18.083v10.73H52.19v-5.886h2.552v3.177h6.876v-8.02z"/>
        <path fill="#EE4250" d="M50.424 11.356h-3.281v6.875h8.022v2.552H44.33V8.96h6.094z"/>
        <path fill="#FF9338" d="M51.987 1.304v10.71h2.52V3.889h7.11v3.437h2.56V1.304z"/>
        <g>
            <path fill="#E7E4E6" d="M21.199 21.16L17.85 29.51h-6.138L0 .293h5.455c.589 0 1.07.134 1.444.4.375.268.642.622.803 1.064l5.656 15.642c.253.681.511 1.423.772 2.226.26.802.504 1.644.732 2.526.187-.882.404-1.724.652-2.526a58.48 58.48 0 0 1 .732-2.226l5.616-15.642c.133-.374.394-.712.782-1.013.388-.3.862-.451 1.424-.451h5.496l-.35.948a.878.878 0 0 1 .024-.01C31.11.496 33.175.128 35.435.128c1.097 0 2.13.097 3.1.29.968.195 1.874.462 2.717.803.842.34 1.618.749 2.326 1.223.709.475 1.337 1 1.886 1.574l-2.287 3.069c-.147.187-.32.358-.521.511-.201.154-.482.23-.843.23-.24 0-.468-.053-.682-.16a7.476 7.476 0 0 1-.681-.39c-.241-.154-.505-.322-.793-.502a6.1 6.1 0 0 0-1.023-.501 8.499 8.499 0 0 0-1.383-.391 9.453 9.453 0 0 0-1.856-.16c-1.23 0-2.353.216-3.37.65a7.389 7.389 0 0 0-2.617 1.866c-.729.809-1.297 1.788-1.704 2.938-.408 1.15-.612 2.44-.612 3.87 0 1.497.204 2.828.612 3.99.407 1.164.962 2.143 1.664 2.939.702.795 1.521 1.4 2.457 1.815a7.344 7.344 0 0 0 3.009.621c.614 0 1.176-.03 1.684-.09s.98-.164 1.414-.31a6.54 6.54 0 0 0 1.244-.572 8.263 8.263 0 0 0 1.193-.873c.16-.133.334-.244.522-.33a1.37 1.37 0 0 1 .581-.131c.16 0 .321.03.482.09.16.06.314.164.461.311l2.688 2.828a11.156 11.156 0 0 1-4.423 3.479c-1.772.782-3.868 1.173-6.287 1.173-2.22 0-4.21-.378-5.967-1.133-1.759-.755-3.25-1.798-4.473-3.128-1.186-1.29-2.103-2.813-2.754-4.567l2.227-5.556-.004.008L21.2 21.16z"/>
            <path fill="#D1CED1" d="M21.275 9.042c-.749 1.825-1.123 3.827-1.123 6.006 0 2.14.328 4.121.983 5.946.02.056.043.11.064.166l7.978-19.903c-1.846.733-3.434 1.753-4.763 3.062-1.344 1.324-2.39 2.898-3.139 4.723z"/>
        </g>
    </g>
</svg>
