<svg xmlns="http://www.w3.org/2000/svg" width="59" height="56" viewBox="0 0 59 56">
    <g fill="#999" fill-rule="nonzero">
        <path d="M58.446 39.952L38.012 28.84a1.002 1.002 0 0 0-1.461 1.062l4.253 22.868a1 1 0 0 0 1.903.208l3.872-9.108 7.913 10.89a1.002 1.002 0 0 0 1.398.223 1 1 0 0 0 .221-1.397L48.2 42.696l9.857-.869a1 1 0 1 0 .39-1.875zM35.5 50H35a1 1 0 1 0 0 2h.5a1 1 0 1 0 0-2zM21.412 50h-.971a1 1 0 1 0 0 2h.971a1 1 0 1 0 0-2zM6.853 50h-.97a1 1 0 1 0 0 2h.971a1 1 0 1 0-.001-2zM16.56 50h-.971a1 1 0 1 0 0 2h.971a1 1 0 1 0 0-2zM26.266 50h-.971a1 1 0 1 0 0 2h.971a1 1 0 1 0 0-2zM11.706 50h-.971a1 1 0 1 0 0 2h.971a1 1 0 1 0 0-2zM31.118 50h-.971a1 1 0 1 0 0 2h.971a1 1 0 1 0 0-2zM2.412 50.088A1.001 1.001 0 0 0 .5 50.5v.5a1 1 0 0 0 1 1H2a1 1 0 0 0 .412-1.912zM1.5 47.5a1 1 0 0 0 1-1v-1a1 1 0 1 0-2 0v1a1 1 0 0 0 1 1zM1.5 37.5a1 1 0 0 0 1-1v-1a1 1 0 1 0-2 0v1a1 1 0 0 0 1 1zM1.5 42.5a1 1 0 0 0 1-1v-1a1 1 0 1 0-2 0v1a1 1 0 0 0 1 1zM1.5 7.5a1 1 0 0 0 1-1v-1a1 1 0 1 0-2 0v1a1 1 0 0 0 1 1zM1.5 12.5a1 1 0 0 0 1-1v-1a1 1 0 1 0-2 0v1a1 1 0 0 0 1 1zM1.5 27.5a1 1 0 0 0 1-1v-1a1 1 0 1 0-2 0v1a1 1 0 0 0 1 1zM1.5 17.5a1 1 0 0 0 1-1v-1a1 1 0 1 0-2 0v1a1 1 0 0 0 1 1zM1.5 22.5a1 1 0 0 0 1-1v-1a1 1 0 1 0-2 0v1a1 1 0 0 0 1 1zM1.5 32.5a1 1 0 0 0 1-1v-1a1 1 0 1 0-2 0v1a1 1 0 0 0 1 1zM2 0h-.5a1 1 0 0 0-1 1v.5a1 1 0 0 0 1.912.412A1.001 1.001 0 0 0 2 0zM32 0h-1a1 1 0 1 0 0 2h1a1 1 0 1 0 0-2zM27 0h-1a1 1 0 1 0 0 2h1a1 1 0 1 0 0-2zM41 2h1a1 1 0 1 0 0-2h-1a1 1 0 1 0 0 2zM46 2h1a1 1 0 1 0 0-2h-1a1 1 0 1 0 0 2zM22 0h-1a1 1 0 1 0 0 2h1a1 1 0 1 0 0-2zM37 0h-1a1 1 0 1 0 0 2h1a1 1 0 1 0 0-2zM7 0H6a1 1 0 1 0 0 2h1a1 1 0 1 0 0-2zM12 0h-1a1 1 0 1 0 0 2h1a1 1 0 1 0 0-2zM17 0h-1a1 1 0 1 0 0 2h1a1 1 0 1 0 0-2zM50.588 1.912A1.001 1.001 0 0 0 52.5 1.5V1a1 1 0 0 0-1-1H51a1 1 0 0 0-.412 1.912zM52.5 24.673a1 1 0 1 0-2 0v.966a1 1 0 1 0 2 0v-.966zM52.5 5.362a1 1 0 1 0-2 0v.966a1 1 0 1 0 2 0v-.966zM52.5 19.846a1 1 0 1 0-2 0v.965a1 1 0 1 0 2 0v-.965zM52.5 15.018a1 1 0 1 0-2 0v.966a1 1 0 1 0 2 0v-.966zM52.5 10.19a1 1 0 1 0-2 0v.965a1 1 0 1 0 2 0v-.965zM51.5 28.5a1 1 0 0 0-1 1v.5a1 1 0 1 0 2 0v-.5a1 1 0 0 0-1-1z"/>
    </g>
</svg>
