<svg xmlns="http://www.w3.org/2000/svg" width="57" height="60" viewBox="0 0 57 60">
    <g fill="none" fill-rule="evenodd">
        <path fill="#F8C14E" d="M55 8.4V18H1V8.4L28 2z"/>
        <path fill="#FCE88F" d="M12 18h32v28H12z"/>
        <path fill="#FF9338" d="M6 18h6v28H6zM44 18h6v28h-6z"/>
        <path fill="#F8C14E" d="M52 46H5v6h47z"/>
        <path fill="#FF9338" d="M55 53H1v6h54z"/>
        <path fill="#F29010" d="M44 18h6v3h-6zM6 18h6v3H6z"/>
        <path fill="#F5A623" d="M12 18h32v3H12z"/>
        <path fill="#000" fill-rule="nonzero" d="M55.78 6.357L28.862.04a1.622 1.622 0 0 0-.726 0L1.221 6.357A1.58 1.58 0 0 0 0 7.895v9.474c0 .872.709 1.579 1.583 1.579H4.75V44.21c-.874 0-1.583.707-1.583 1.579v4.736H1.583c-.874 0-1.583.707-1.583 1.58v6.315C0 59.293.709 60 1.583 60h53.834C56.29 60 57 59.293 57 58.421v-6.316c0-.872-.709-1.579-1.583-1.579h-1.584V45.79c0-.872-.709-1.58-1.583-1.58V18.949h3.167c.874 0 1.583-.707 1.583-1.58V7.896a1.58 1.58 0 0 0-1.22-1.538zM7.916 18.947h3.166v25.264H7.917V18.948zm34.833 0v25.264h-28.5V18.948h28.5zm11.083 37.895H3.167v-3.158h50.666v3.158zm-47.5-6.316v-3.158h44.334v3.158H6.333zm42.75-6.315h-3.166V18.948h3.166V44.21zm4.75-28.421H3.167V9.145L28.5 3.2l25.333 5.945v6.645z"/>
        <path fill="#000" fill-rule="nonzero" d="M23 10a5 5 0 1 0 10 0 5 5 0 0 0-10 0zm6.667 0a1.667 1.667 0 1 1-3.334 0 1.667 1.667 0 0 1 3.334 0z"/>
        <path fill="#000" d="M26.875 33.083h3.25c.897 0 1.625.71 1.625 1.584 0 .874-.728 1.583-1.625 1.583h-3.25c-.897 0-1.625-.709-1.625-1.583H22c0 2.623 2.183 4.75 4.875 4.75V41h3.25v-1.583c2.692 0 4.875-2.127 4.875-4.75 0-2.624-2.183-4.75-4.875-4.75h-3.25c-.897 0-1.625-.71-1.625-1.584 0-.874.728-1.583 1.625-1.583h3.25c.897 0 1.625.709 1.625 1.583H35c0-2.623-2.183-4.75-4.875-4.75V22h-3.25v1.583c-2.692 0-4.875 2.127-4.875 4.75 0 2.624 2.183 4.75 4.875 4.75z"/>
    </g>
</svg>
