<svg xmlns="http://www.w3.org/2000/svg" width="60" height="46" viewBox="0 0 60 46">
    <g fill="none" fill-rule="evenodd">
        <path fill="#E8E6ED" d="M59.121 2.05v41.717c0 .647-.525 1.172-1.172 1.172H2.051a1.172 1.172 0 0 1-1.172-1.172V2.05c0-.646.525-1.172 1.172-1.172h55.898c.647 0 1.172.526 1.172 1.172z"/>
        <path fill="#DBDBDB" d="M59.121 2.05v41.717c0 .647-.525 1.172-1.172 1.172H43.912C56.878 33.716 56.59 7.62 56.284.879h1.665c.647 0 1.172.525 1.172 1.171z"/>
        <path fill="#BDBDBD" d="M59.121 2.05v6.215H.88V2.05c0-.646.525-1.172 1.172-1.172h55.898c.647 0 1.172.526 1.172 1.172z"/>
        <path fill="#717177" d="M59.121 2.05v6.215H56.33a99.818 99.818 0 0 0-.045-7.387h1.665c.647 0 1.172.526 1.172 1.172z"/>
        <path fill="#75DBE9" d="M51.874 14.023v24.844c0 .647-.525 1.172-1.172 1.172H9.298a1.172 1.172 0 0 1-1.172-1.172V14.023c0-.647.525-1.172 1.172-1.172h41.404c.647 0 1.172.525 1.172 1.172z"/>
        <path fill="#06B9FF" d="M51.874 14.023v24.844c0 .647-.525 1.172-1.172 1.172h-8.731c5.192-7.705 7.12-18.716 7.773-27.188h.958c.647 0 1.172.525 1.172 1.172z"/>
        <path fill="#C2E565" d="M51.874 34.489v4.378c0 .647-.525 1.172-1.172 1.172H9.298a1.172 1.172 0 0 1-1.172-1.172v-4.458l10.57-9.42a1.174 1.174 0 0 1 1.534-.02l7.532 6.343c.362.305.872.362 1.291.146l3.64-1.877a1.174 1.174 0 0 1 1.304.156l2.398 2.073 3.562 3.08a1.17 1.17 0 0 0 1.595-.058l2.893-2.892c.345-.346.87-.44 1.314-.237l6.115 2.786z"/>
        <path fill="#A4CD39" d="M51.874 34.489v4.378c0 .647-.525 1.172-1.172 1.172H9.298a1.172 1.172 0 0 1-1.172-1.172v-.884c14.021-1.045 23.084-3.913 28.269-6.173l3.562 3.08a1.17 1.17 0 0 0 1.595-.058l2.893-2.892c.345-.346.87-.44 1.314-.237l6.115 2.786z"/>
        <path fill="#83F6FF" d="M55.697 25.52a3.823 3.823 0 1 1-7.646 0 3.823 3.823 0 0 1 7.646 0zM11.949 25.52a3.823 3.823 0 1 1-7.646 0 3.823 3.823 0 0 1 7.646 0z"/>
        <path fill="#F8C14E" d="M43.912 21.856a3.715 3.715 0 1 1-7.429 0 3.715 3.715 0 0 1 7.43 0z"/>
        <path fill="#FCE88F" d="M43.912 21.856a3.714 3.714 0 0 1-5.02 3.478 3.715 3.715 0 0 0 0-6.955 3.714 3.714 0 0 1 5.02 3.477z"/>
        <path fill="#000" fill-rule="nonzero" d="M57.95 0H41.524a.879.879 0 1 0 0 1.758H57.95c.162 0 .293.131.293.293v5.335H1.758V2.051c0-.162.131-.293.293-.293h35.428a.879.879 0 1 0 0-1.758H2.051C.92 0 0 .92 0 2.05v41.716c0 1.131.92 2.051 2.05 2.051h55.9c1.13 0 2.05-.92 2.05-2.05V2.05C60 .92 59.08 0 57.95 0zm0 44.06H2.05a.293.293 0 0 1-.292-.294V9.144h56.484v34.622a.293.293 0 0 1-.293.293z"/>
        <path fill="#000" d="M5.566 3.693h-.007A.88.88 0 0 0 5.55 5.45H5.572a.879.879 0 0 0 .007-1.758h-.013zM8.22 3.693h-.008a.879.879 0 0 0-.008 1.758h.022a.879.879 0 0 0 .007-1.758H8.22zM10.873 3.693h-.008a.88.88 0 0 0-.007 1.758H10.88a.879.879 0 0 0 .008-1.758h-.014zM54.441 5.45a.879.879 0 1 0 0-1.757h-1.635a.879.879 0 1 0 0 1.758h1.635zM52.075 23.499a.879.879 0 1 0-1.196 1.288l.79.734-.79.733a.879.879 0 0 0 1.196 1.289l1.484-1.378a.88.88 0 0 0 0-1.288l-1.484-1.378z"/>
        <path fill="#000" fill-rule="nonzero" d="M52.753 20.902v-6.879c0-1.13-.92-2.05-2.05-2.05H27.814a.879.879 0 1 0 0 1.757h22.887c.162 0 .293.132.293.293v6.88a4.709 4.709 0 0 0-3.823 4.618 4.709 4.709 0 0 0 3.823 4.618v2.984l-4.871-2.22a2.06 2.06 0 0 0-2.3.416l-2.894 2.892a.294.294 0 0 1-.398.015l-5.96-5.153a2.041 2.041 0 0 0-2.28-.272l-3.641 1.875a.292.292 0 0 1-.323-.036l-7.532-6.344a2.062 2.062 0 0 0-2.685.038L9.005 32.45v-2.31a4.71 4.71 0 0 0 3.823-4.618 4.709 4.709 0 0 0-3.823-4.619v-6.879c0-.161.131-.293.293-.293h14.471a.879.879 0 1 0 0-1.758H9.298c-1.131 0-2.051.92-2.051 2.051v6.88a4.709 4.709 0 0 0-3.823 4.618 4.709 4.709 0 0 0 3.823 4.618v8.728c0 1.131.92 2.051 2.05 2.051h9.023a.879.879 0 1 0 0-1.758H9.298a.293.293 0 0 1-.293-.293v-4.064l10.275-9.156a.295.295 0 0 1 .384-.006l7.532 6.343a2.047 2.047 0 0 0 2.26.255l3.64-1.876a.292.292 0 0 1 .327.039l5.959 5.153c.384.333.863.498 1.34.498a2.05 2.05 0 0 0 1.452-.598l2.893-2.893a.294.294 0 0 1 .329-.059l5.6 2.552v3.812a.293.293 0 0 1-.294.293H22.366a.879.879 0 1 0 0 1.758h28.336c1.131 0 2.051-.92 2.051-2.05v-8.729a4.709 4.709 0 0 0 3.823-4.618 4.709 4.709 0 0 0-3.823-4.619zM5.182 25.521a2.947 2.947 0 0 1 2.944-2.945 2.948 2.948 0 0 1 2.944 2.945 2.948 2.948 0 0 1-2.944 2.944 2.947 2.947 0 0 1-2.944-2.944zm46.692 2.944a2.948 2.948 0 0 1-2.944-2.944 2.948 2.948 0 0 1 2.944-2.945 2.948 2.948 0 0 1 2.944 2.945 2.947 2.947 0 0 1-2.944 2.944z"/>
        <path fill="#000" d="M9.167 27.496a.879.879 0 0 0-.046-1.242l-.79-.734.79-.733a.879.879 0 0 0-1.196-1.289l-1.484 1.378a.88.88 0 0 0 0 1.289l1.484 1.377a.875.875 0 0 0 1.242-.046z"/>
        <path fill="#000" fill-rule="nonzero" d="M25.664 22.576h9.998a4.6 4.6 0 0 0 4.536 3.874 4.598 4.598 0 0 0 4.592-4.538h1.5a.879.879 0 1 0 0-1.758h-1.827a4.599 4.599 0 0 0-4.265-2.89 4.6 4.6 0 0 0-4.474 3.555h-10.06a.88.88 0 0 0 0 1.757zm14.534-3.555c.927 0 1.751.447 2.27 1.137a.878.878 0 0 0 .071 1.754h.493a2.839 2.839 0 0 1-2.834 2.78c-1.315 0-2.423-.9-2.743-2.116h.514a.879.879 0 1 0 0-1.757h-.409a2.84 2.84 0 0 1 2.638-1.798z"/>
        <path fill="#000" d="M33.193 19.948a.879.879 0 1 0 0-1.758H30.44a.879.879 0 1 0 0 1.758h2.754z"/>
    </g>
</svg>
