<svg xmlns="http://www.w3.org/2000/svg" width="55" height="50" viewBox="0 0 55 50">
    <g fill="none" fill-rule="evenodd">
        <path fill="#F59199" d="M16.488 13h37.336a1 1 0 0 1 .972 1.237l-3.75 15.39a1 1 0 0 1-.972.763H20.43L16.488 13z"/>
        <path fill="#616161" fill-rule="nonzero" d="M49.884 28.13l4.4-15.618a2 2 0 0 0-1.925-2.542h-5.493l-2.303-7.074a2 2 0 0 0-2.515-1.284l-8.364 2.696a2 2 0 0 0-1.286 2.53l1.034 3.132h-.573L30.48 2.874a2 2 0 0 0-2.51-1.267l-8.38 2.7a2 2 0 0 0-1.286 2.532l1.035 3.13h-6.512l-1.352-5.377C10.794 1.904 8.435 0 5.721 0H2C1.243.065.864.398.864 1S1.243 2.018 2 2.248h3.72c1.688 0 3.16 1.118 3.613 2.807l5.982 23.274a4.864 4.864 0 0 0-2.044 3.968c0 2.69 2.26 4.937 4.964 4.937h30.448c.773 0 1.16-.377 1.16-1.13 0-.753-.387-1.126-1.16-1.118H18.235c-1.47 0-2.704-1.237-2.704-2.689 0-1.473 1.244-2.71 2.704-2.71H47.96a2 2 0 0 0 1.925-1.457zM42.486 3.797l2.033 6.055h-8.794l-1.244-3.474 8.005-2.581zm-14.094 0l2.033 6.055h-8.793l-1.244-3.474 8.004-2.581zm23.677 8.302L47.786 27.35H17.338L13.39 12.1h38.679zM38.57 40.426c-2.614 0-4.77 2.164-4.77 4.787 0 2.623 2.156 4.787 4.77 4.787 2.723 0 4.77-2.164 4.77-4.787 0-2.623-2.156-4.787-4.77-4.787zm0 7.41c-1.481 0-2.614-1.257-2.614-2.623 0-1.487 1.253-2.623 2.614-2.623 1.481 0 2.614 1.136 2.614 2.623 0 1.486-1.253 2.623-2.614 2.623zM21.61 40.426c-2.614 0-4.77 2.164-4.77 4.787 0 2.623 2.156 4.787 4.77 4.787 2.614 0 4.77-2.164 4.77-4.787 0-2.623-2.156-4.787-4.77-4.787zm0 7.41c-1.481 0-2.614-1.257-2.614-2.623 0-1.487 1.253-2.623 2.614-2.623s2.614 1.136 2.614 2.623c0 1.486-1.253 2.623-2.614 2.623z"/>
        <path stroke="#666" stroke-linecap="round" stroke-width="2" d="M24.5 15.5l3 9M31.5 15.5l3 9M38.5 15.5l3 9"/>
    </g>
</svg>
