<svg xmlns="http://www.w3.org/2000/svg" width="58" height="60" viewBox="0 0 58 60">
    <g fill="none" fill-rule="evenodd">
        <circle cx="10.985" cy="29.953" r="9.979" fill="#F8C14E"/>
        <g fill="#FCE88F" transform="translate(46.902 .998)">
            <circle cx="4.997" cy="3.009" r="2.994"/>
            <path d="M4.997 6.002a4.99 4.99 0 0 1 4.99 4.99v4.99H.007v-4.99a4.99 4.99 0 0 1 4.99-4.99z"/>
        </g>
        <g fill="#EA907A" transform="translate(46.902 21.954)">
            <circle cx="4.997" cy="3.009" r="2.994"/>
            <path d="M4.997 6.002a4.99 4.99 0 0 1 4.99 4.99v4.99H.007v-4.99a4.99 4.99 0 0 1 4.99-4.99z"/>
        </g>
        <g fill="#C2E565" transform="translate(46.902 42.91)">
            <circle cx="4.997" cy="3.009" r="2.994"/>
            <path d="M4.997 6.002a4.99 4.99 0 0 1 4.99 4.99v4.99H.007v-4.99a4.99 4.99 0 0 1 4.99-4.99z"/>
        </g>
        <g fill="#FCE88F">
            <path d="M35.933 4.007v5.987L41.921 7zM35.933 26.959v5.987l5.988-2.993zM35.933 49.911v5.988l5.988-2.994z"/>
        </g>
        <path fill="#000" fill-rule="nonzero" d="M10.985 40.93a10.988 10.988 0 0 0 10.927-9.98h7.036v21.955c0 .55.446.998.997.998h4.99v1.996a.998.998 0 0 0 1.444.892l5.988-2.994a.998.998 0 0 0 0-1.785l-5.988-2.994a.998.998 0 0 0-1.444.893v1.996h-3.992V30.95h3.992v1.995a.998.998 0 0 0 1.444.893l5.988-2.994a.998.998 0 0 0 0-1.785l-5.988-2.994a.998.998 0 0 0-1.444.893v1.996h-3.992V7.998h3.992v1.996a.998.998 0 0 0 1.444.893l5.988-2.994a.998.998 0 0 0 0-1.785l-5.988-2.994a.998.998 0 0 0-1.444.893v1.995h-4.99a.998.998 0 0 0-.997.998v21.955h-7.036c-.553-6.036-5.894-10.481-11.93-9.929-6.036.552-10.481 5.893-9.928 11.93a10.975 10.975 0 0 0 10.931 9.974zm25.946 10.596l2.758 1.379-2.758 1.379v-2.758zm0-22.952l2.758 1.379-2.758 1.379v-2.758zm0-22.953l2.758 1.38-2.758 1.378V5.621zm-25.946 15.35a8.981 8.981 0 1 1-8.981 8.982 8.991 8.991 0 0 1 8.981-8.982zM57.887 11.99a5.99 5.99 0 0 0-3.1-5.242 3.992 3.992 0 1 0-5.775 0 5.99 5.99 0 0 0-3.1 5.242v4.99c0 .55.447.997.998.997h9.98a.998.998 0 0 0 .997-.997v-4.99zm-7.983-7.983a1.996 1.996 0 1 1 3.991 0 1.996 1.996 0 0 1-3.991 0zm5.987 11.975h-7.983V11.99a3.992 3.992 0 0 1 7.983 0v3.992zM57.887 32.946a5.99 5.99 0 0 0-3.1-5.242 3.992 3.992 0 1 0-5.775 0 5.99 5.99 0 0 0-3.1 5.242v4.99c0 .55.447.998.998.998h9.98a.998.998 0 0 0 .997-.998v-4.99zm-7.983-7.983a1.996 1.996 0 1 1 3.991 0 1.996 1.996 0 0 1-3.991 0zm5.987 11.975h-7.983v-3.992a3.992 3.992 0 0 1 7.983 0v3.992zM46.91 59.89h9.98a.998.998 0 0 0 .997-.997v-4.99a5.99 5.99 0 0 0-3.1-5.242 3.992 3.992 0 1 0-5.775 0 5.99 5.99 0 0 0-3.1 5.242v4.99c0 .55.447.997.998.997zm2.994-13.97a1.996 1.996 0 1 1 3.991 0 1.996 1.996 0 0 1-3.991 0zm-1.996 7.983a3.992 3.992 0 0 1 7.983 0v3.991h-7.983v-3.991z"/>
        <path fill="#000" d="M10.985 32.946a.999.999 0 0 1-.998-.998H7.991a2.989 2.989 0 0 0 1.996 2.81v2.18h1.996v-2.18a2.989 2.989 0 0 0 1.996-2.81c0-2.108-1.69-2.636-2.698-2.95-1.125-.35-1.294-.487-1.294-1.041a.998.998 0 0 1 1.996 0h1.996a2.989 2.989 0 0 0-1.996-2.81v-2.18H9.987v2.18a2.989 2.989 0 0 0-1.996 2.81c0 2.106 1.688 2.632 2.696 2.947 1.126.35 1.296.487 1.296 1.044a1 1 0 0 1-.998.998z"/>
    </g>
</svg>
