<svg xmlns="http://www.w3.org/2000/svg" width="60" height="60" viewBox="0 0 60 60">
    <g fill="none" fill-rule="evenodd">
        <path fill="#FCE88F" d="M50.905 30.657l2.494 6.396-2.554.799-4.092 1.267-.579 6.826-6.905-.948-1.238 2.065-2.305 3.832-5.788-3.812-5.798 3.812-2.385-3.991-1.147-1.906-6.906.948-.579-6.826-4.051-1.258-2.595-.808 2.495-6.396-5.07-4.71 5.07-4.71-2.495-6.398 6.646-2.065.58-6.826 6.905.948L24.15.998l5.788 3.812L35.736.998l3.533 5.898 6.905-.948.58 6.826 6.645 2.065-2.494 6.397 5.069 4.71z"/>
        <g fill="#4DB4D4">
            <path d="M13.705 45.948l-.583-6.826-4.053-1.264-8.07 13.036L11.976 48.9l1.996 9.979 7.781-11.972-1.147-1.912zM50.845 37.848l-4.092 1.276-.583 6.826-6.9-.956-1.242 2.07 7.877 11.814 1.996-9.98 10.977.998z"/>
        </g>
        <path fill="#F8C14E" d="M15.967 20.957h6.986v14.969h-6.986z"/>
        <path fill="#F0D0B4" d="M22.953 22.953l4.99-3.992 1.995-3.992V9.98a3.987 3.987 0 0 1 3.992 3.982v5h7.983a2.002 2.002 0 0 1 1.996 1.996 2.01 2.01 0 0 1-1.996 1.996h-.998a2.002 2.002 0 0 1 1.996 1.995 2.01 2.01 0 0 1-1.996 1.996h-.998a2.002 2.002 0 0 1 1.996 1.996 2.01 2.01 0 0 1-1.996 1.996h-.997a2.002 2.002 0 0 1 1.995 1.996 2.01 2.01 0 0 1-1.995 1.996H22.953"/>
        <path fill="#000" fill-rule="nonzero" d="M1.177 51.876l10.012-1.82 1.805 9.021c.079.396.388.705.784.784a.987.987 0 0 0 .194.015.998.998 0 0 0 .83-.444l7.001-10.503 1.486 2.478a.998.998 0 0 0 .861.485.997.997 0 0 0 .55-.164l5.238-3.452 5.243 3.452a.998.998 0 0 0 1.405-.32l1.487-2.48 7.002 10.504a.998.998 0 0 0 1.808-.359l1.816-9.1 10.09.921a.998.998 0 0 0 .92-1.547l-7.294-10.944 1.279-.399a.998.998 0 0 0 .632-1.314l-2.242-5.767 4.567-4.246a.998.998 0 0 0 0-1.461l-4.567-4.245 2.243-5.767a.998.998 0 0 0-.632-1.315l-6.004-1.872-.525-6.157a1.004 1.004 0 0 0-.372-.698.99.99 0 0 0-.76-.209l-6.247.865-3.2-5.333a.998.998 0 0 0-1.405-.32l-5.244 3.452L24.695.165a.998.998 0 0 0-1.405.32l-3.2 5.335-6.246-.865a.998.998 0 0 0-1.132.904l-.526 6.157-5.998 1.872a.998.998 0 0 0-.633 1.315l2.242 5.767-4.571 4.246a.998.998 0 0 0 0 1.46l4.566 4.246-2.243 5.767a.998.998 0 0 0 .633 1.314l1.324.412L.148 50.371a.998.998 0 0 0 1.03 1.505zm55.713-3.162l-8.9-.813a1.012 1.012 0 0 0-1.067.798l-1.524 7.617-6.187-9.28.577-.963 6.247.866a.998.998 0 0 0 1.131-.905l.526-6.157 2.74-.854 6.457 9.69zM5.371 25.946l4.277-3.975a.998.998 0 0 0 .25-1.093l-2.096-5.403 5.624-1.753a.998.998 0 0 0 .698-.868l.493-5.777 5.859.81a.998.998 0 0 0 .998-.475l3.004-5.008 4.911 3.242c.333.219.765.219 1.098 0l4.924-3.242 3.004 5.009c.207.342.597.528.993.475l5.858-.81.493 5.777c.035.404.311.747.699.868l5.623 1.754-2.101 5.4a.998.998 0 0 0 .25 1.094l4.275 3.975-4.276 3.976a.998.998 0 0 0-.25 1.093l2.095 5.403-5.618 1.753a.998.998 0 0 0-.699.868l-.493 5.777-5.857-.807a1.005 1.005 0 0 0-.993.476l-3.004 5.007-4.923-3.245a.998.998 0 0 0-1.098 0l-4.923 3.241-3.004-5.008a.998.998 0 0 0-.993-.475l-5.859.81-.493-5.777a.998.998 0 0 0-.698-.868l-5.622-1.754 2.096-5.401a.998.998 0 0 0-.25-1.093L5.37 25.946zm4.1 13.083l2.714.846.525 6.157a.998.998 0 0 0 1.132.907l6.248-.865.578.964-6.188 9.281-1.526-7.62a.998.998 0 0 0-1.157-.786L3.02 49.509l6.452-10.48z"/>
        <path fill="#000" fill-rule="nonzero" d="M15.967 36.923h6.986a.998.998 0 0 0 .998-.997H38.92a3.009 3.009 0 0 0 2.993-2.994 2.96 2.96 0 0 0-.399-1.465c.184-.115.354-.251.507-.405a2.94 2.94 0 0 0 .491-3.587c.184-.115.354-.25.507-.405a2.94 2.94 0 0 0 .491-3.587c.184-.114.354-.25.507-.405a2.938 2.938 0 0 0 .89-2.121 2.994 2.994 0 0 0-2.994-2.994h-6.985v-3.992a4.985 4.985 0 0 0-4.98-4.99h-.01a.998.998 0 0 0-.998.999v4.754l-1.796 3.584-3.211 2.57a.99.99 0 0 0-.98-.93h-6.986a.998.998 0 0 0-.998.999v14.969c0 .55.447.997.998.997zm12.6-17.183c.112-.09.204-.204.269-.333l1.995-3.992a.998.998 0 0 0 .105-.446v-3.82c1.198.42 2 1.552 1.996 2.822v4.99c0 .551.447.998.998.998h7.983c.551 0 .998.447.998.998.001.269-.11.526-.305.71a.955.955 0 0 1-.693.288h-3.991v1.995h2.993c.551 0 .998.447.998.998.001.27-.11.527-.305.71a.955.955 0 0 1-.693.288h-3.991v1.996h2.993c.552 0 .998.447.998.998.001.269-.11.526-.305.71a.955.955 0 0 1-.693.288h-3.991v1.996h2.994c.55 0 .997.447.997.998.001.269-.11.526-.305.71a.955.955 0 0 1-.692.288H23.95V23.432l4.616-3.692zm-11.602 2.215h4.99v12.973h-4.99V21.955z"/>
    </g>
</svg>
