<svg xmlns="http://www.w3.org/2000/svg" width="52" height="60" viewBox="0 0 52 60">
    <g fill="none" fill-rule="evenodd">
        <path fill="#F2754F" fill-rule="nonzero" d="M49.807 8.909v49.813H30.84v-11.57a2.616 2.616 0 0 0-2.608-2.609h-5.335a2.616 2.616 0 0 0-2.609 2.61V58.721H1.337V8.909A2.616 2.616 0 0 1 3.946 6.3h6.756v1.76a2.6 2.6 0 0 0 2.609 2.61h24.522a2.608 2.608 0 0 0 2.608-2.61V6.3h6.756a2.616 2.616 0 0 1 2.61 2.609zm-6.144 43.108v-7.46h-7.656v7.46h7.656zm0-15.052v-7.46h-7.656v7.46h7.656zm0-15.117v-7.461h-7.656v7.46h7.656zM30.007 36.965v-7.46h-8.922v7.46h8.922zm0-15.117v-7.461h-8.922v7.46h8.922zm-14.87 30.17v-7.461H7.48v7.46h7.657zm0-15.053v-7.46H7.48v7.46h7.657zm0-15.117v-7.461H7.48v7.46h7.657z"/>
        <path fill="#FCE88F" d="M36.007 44.557h7.657v7.46h-7.657zM36.007 29.49h7.657v7.462h-7.657zM36.007 14.374h7.657v7.46h-7.657z"/>
        <path fill="#75DBE9" d="M40.441 6.3v1.76a2.608 2.608 0 0 1-2.608 2.61H13.31a2.6 2.6 0 0 1-2.609-2.61V3.888a2.608 2.608 0 0 1 2.609-2.609h24.522a2.616 2.616 0 0 1 2.608 2.609V6.3z"/>
        <path fill="#F8C14E" d="M30.841 58.54v.195H20.29v-11.57a2.616 2.616 0 0 1 2.609-2.608h5.335a2.616 2.616 0 0 1 2.608 2.608V58.54z"/>
        <path fill="#FCE88F" d="M21.085 29.49h8.922v7.462h-8.922zM21.085 14.374h8.922v7.46h-8.922zM7.48 44.557h7.658v7.46H7.48zM7.48 29.49h7.658v7.462H7.48zM7.48 14.374h7.658v7.46H7.48z"/>
        <path fill="#000" fill-rule="nonzero" d="M47.198 4.957h-5.452v-1.07C41.746 1.735 39.985 0 37.833 0H13.31c-2.152 0-3.913 1.722-3.913 3.887v1.07H3.946c-2.153 0-3.94 1.8-3.94 3.952v49.813C.007 59.439.62 60 1.338 60h48.456c.718 0 1.33-.548 1.33-1.278V8.909c.014-2.152-1.773-3.952-3.925-3.952zM21.658 57.39V47.165c0-.717.522-1.252 1.253-1.252h5.335a1.22 1.22 0 0 1 1.252 1.252v10.226h-7.84zm6.575-14.087h-5.335a3.828 3.828 0 0 0-3.861 3.861v10.226H2.615V8.91c0-.718.613-1.344 1.33-1.344h5.453v.496c0 2.152 1.76 3.939 3.913 3.939h24.522c2.152 0 3.913-1.787 3.913-3.94v-.495h5.452c.717 0 1.33.626 1.33 1.344V57.39H32.093V47.165a3.82 3.82 0 0 0-3.86-3.86zM39.137 8.087c0 .717-.587 1.304-1.304 1.304H13.31a1.308 1.308 0 0 1-1.304-1.304V3.913c0-.717.586-1.304 1.304-1.304h24.522c.717 0 1.304.587 1.304 1.304v4.174z"/>
        <path fill="#000" fill-rule="nonzero" d="M45.007 29.478c0-.717-.587-1.304-1.305-1.304h-7.695c-.718 0-1.305.587-1.305 1.304v7.435c0 .717.587 1.304 1.305 1.304h7.695c.718 0 1.305-.587 1.305-1.304v-7.435zm-2.61 1.305v4.826h-5.086v-4.826h5.087zM31.31 29.478c0-.717-.586-1.304-1.303-1.304h-8.87c-.717 0-1.304.587-1.304 1.304v7.435c0 .717.587 1.304 1.304 1.304h8.87c.717 0 1.304-.587 1.304-1.304v-7.435zm-8.869 6.13v-4.825h6.261v4.826h-6.26zM16.441 29.478c0-.717-.587-1.304-1.304-1.304H7.441c-.717 0-1.304.587-1.304 1.304v7.435c0 .717.587 1.304 1.304 1.304h7.696c.717 0 1.304-.587 1.304-1.304v-7.435zm-7.695 6.13v-4.825h5.087v4.826H8.746zM45.007 44.609c0-.718-.587-1.305-1.305-1.305h-7.695c-.718 0-1.305.587-1.305 1.305v7.434c0 .718.587 1.305 1.305 1.305h7.695c.718 0 1.305-.587 1.305-1.305V44.61zm-2.61 1.304v4.826h-5.086v-4.826h5.087zM16.441 44.609c0-.718-.587-1.305-1.304-1.305H7.441c-.717 0-1.304.587-1.304 1.305v7.434c0 .718.587 1.305 1.304 1.305h7.696c.717 0 1.304-.587 1.304-1.305V44.61zm-7.695 6.13v-4.826h5.087v4.826H8.746zM45.007 14.348c0-.718-.587-1.305-1.305-1.305h-7.695c-.718 0-1.305.587-1.305 1.305v7.435c0 .717.587 1.304 1.305 1.304h7.695c.718 0 1.305-.587 1.305-1.304v-7.435zm-2.61 1.304v4.826h-5.086v-4.826h5.087zM31.31 14.348c0-.718-.586-1.305-1.303-1.305h-8.87c-.717 0-1.304.587-1.304 1.305v7.435c0 .717.587 1.304 1.304 1.304h8.87c.717 0 1.304-.587 1.304-1.304v-7.435zm-8.869 6.13v-4.826h6.261v4.826h-6.26zM16.441 14.348c0-.718-.587-1.305-1.304-1.305H7.441c-.717 0-1.304.587-1.304 1.305v7.435c0 .717.587 1.304 1.304 1.304h7.696c.717 0 1.304-.587 1.304-1.304v-7.435zm-7.695 6.13v-4.826h5.087v4.826H8.746z"/>
    </g>
</svg>
