<svg xmlns="http://www.w3.org/2000/svg" width="56" height="60" viewBox="0 0 56 60">
    <g fill="none" fill-rule="evenodd">
        <path fill="#FAD944" fill-opacity=".6" d="M27.19 1.187L1.526 13.725a.943.943 0 0 0-.526.849v30.852c0 .361.205.691.526.848L27.19 58.813c.512.25 1.108.25 1.62 0l25.664-12.539a.943.943 0 0 0 .526-.848V14.574a.943.943 0 0 0-.526-.848L28.81 1.187a1.842 1.842 0 0 0-1.62 0z"/>
        <path fill="#F5A623" fill-opacity=".6" d="M1.155 14a.948.948 0 0 0-.155.516v30.892c0 .362.205.692.526.85L27.19 58.812c.256.125.533.188.81.188V27.132L1.155 14zM54.845 14a.948.948 0 0 1 .155.516v30.892a.945.945 0 0 1-.526.85L28.81 58.812A1.841 1.841 0 0 1 28 59V27.132L54.845 14z"/>
        <path fill="#EE4250" fill-opacity=".6" d="M46 18.428L19.093 5 12 8.551 38.968 22zM39 22.456v10.079c0 .342.357.567.664.418l5.813-2.817a.93.93 0 0 0 .523-.837V19l-7 3.456z"/>
        <path fill="#000" fill-rule="nonzero" d="M55.505 13.239L28.381.087a.872.872 0 0 0-.761 0L.495 13.24A.88.88 0 0 0 0 14.03v31.94a.88.88 0 0 0 .495.791l27.124 13.152a.872.872 0 0 0 .762 0L55.505 46.76A.88.88 0 0 0 56 45.97V14.03a.88.88 0 0 0-.495-.791zM28 1.855L53.112 14.03l-7.28 3.53a.867.867 0 0 0-.148-.094L20.743 5.373 28 1.855zm-9.233 4.512l25.075 12.158-5.136 2.49L13.641 8.862l5.126-2.495zm20.865 16.151l4.797-2.326v9.205l-4.797 2.326v-9.205zM28.875 57.721V27.733l6.053-2.934a.88.88 0 0 0 .407-1.174.873.873 0 0 0-1.168-.41L28 26.206l-2.427-1.176a.873.873 0 0 0-1.168.41.88.88 0 0 0 .407 1.173l2.313 1.121v29.988L1.75 45.418V15.43L21.073 24.8a.875.875 0 0 0 1.168-.41.88.88 0 0 0-.407-1.173L2.888 14.03l8.693-4.215L37.87 22.561l.012.015v10.547a.88.88 0 0 0 .876.88.87.87 0 0 0 .38-.088l6.547-3.175a.88.88 0 0 0 .495-.791V19.344l8.07-3.913v29.987L28.876 57.721z"/>
        <path fill="#000" fill-opacity=".6" d="M9.482 42.188l-4.167-2.093a.9.9 0 0 0-1.224.444c-.22.474-.029 1.044.427 1.273l4.167 2.093a.882.882 0 0 0 .398.095c.34 0 .668-.199.826-.539.22-.474.029-1.044-.427-1.273zM12.526 39.47l-7.322-3.39a.855.855 0 0 0-1.12.375.79.79 0 0 0 .39 1.074l7.322 3.39c.118.055.242.081.364.081a.843.843 0 0 0 .756-.455.79.79 0 0 0-.39-1.074z"/>
    </g>
</svg>
