<svg xmlns="http://www.w3.org/2000/svg" width="60" height="60" viewBox="0 0 60 60">
    <g fill="none" fill-rule="evenodd">
        <path fill="#75DBE9" d="M.994 8.97H36.77v41.74H.994z"/>
        <path fill="#4DB4D4" d="M36.77 8.97v41.74H.994v-5.804A72.422 72.422 0 0 0 33.749 8.971h3.021z"/>
        <path fill="#F8C14E" d="M54.658 19.902v17.829l2.803-.755a1.992 1.992 0 0 0 1.401-2.435l-6.171-23.046a1.988 1.988 0 0 0-2.435-1.401l-1.56.417-27.638 7.404h31.613a1.994 1.994 0 0 1 1.987 1.987z"/>
        <path fill="#ACABB1" d="M.994 54.685a3.975 3.975 0 0 0 3.975 3.975h27.826a3.975 3.975 0 0 0 3.975-3.975V50.71H.994v3.975zM32.795 1.02H4.969A3.975 3.975 0 0 0 .994 4.996V8.97H36.77V4.996a3.975 3.975 0 0 0-3.975-3.976z"/>
        <path fill="#A4CD39" d="M54.658 19.902v19.876a1.993 1.993 0 0 1-1.987 1.988H16.894V17.915h35.777a1.994 1.994 0 0 1 1.987 1.987z"/>
        <path fill="#FFA733" d="M23.85 21.89h-2.98v5.963h2.98z"/>
        <path fill="#FF6243" d="M23.85 24.871h4.97v2.982h-4.97z"/>
        <path fill="#C2E565" d="M54.658 19.902v19.876a1.993 1.993 0 0 1-1.987 1.988H21.615a72.249 72.249 0 0 0 23.93-23.851h7.126a1.994 1.994 0 0 1 1.987 1.987z"/>
        <path fill="#FFA733" d="M47.702 21.89a2.982 2.982 0 1 0 0 5.963 2.982 2.982 0 0 0 0-5.963z"/>
        <path fill="#FF7956" d="M45.714 22.655a2.948 2.948 0 0 0-1.987-.765 2.982 2.982 0 0 0 0 5.963 2.945 2.945 0 0 0 1.987-.765 2.967 2.967 0 0 1 0-4.433z"/>
        <path fill="#000" d="M8.944 4.002h3.975v1.987H8.944zM14.907 4.002h7.95v1.987h-7.95zM14.907 53.691h7.95v1.988h-7.95z"/>
        <path fill="#000" fill-rule="nonzero" d="M29.814 27.853V21.89a.994.994 0 0 0-.994-.994h-7.95a.994.994 0 0 0-.994.994v5.963c0 .549.445.994.994.994h7.95a.994.994 0 0 0 .994-.994zm-1.988-3.975h-2.981v-.994h2.981v.994zm-5.963-.994h.994v3.975h-.994v-3.975zm2.982 3.975v-.994h2.981v.994h-2.981zM47.702 20.896a3.963 3.963 0 0 0-1.988.542 3.975 3.975 0 1 0 0 6.866 3.975 3.975 0 1 0 1.988-7.408zm-3.975 5.963a1.988 1.988 0 1 1 .497-3.913c-.04.071-.069.146-.1.22l-.06.124c-.095.222-.17.451-.224.686-.01.045-.017.09-.026.136a3.623 3.623 0 0 0 0 1.518c.01.046.016.092.026.138a3.996 3.996 0 0 0 .289.82c.034.07.062.14.1.208a1.943 1.943 0 0 1-.502.063zm3.975 0c-.494 0-.97-.186-1.335-.52a1.975 1.975 0 0 1 .014-2.946c.362-.328.833-.51 1.32-.51a1.988 1.988 0 0 1 0 3.976z"/>
        <path fill="#000" d="M25.839 32.822h1.987v1.987H25.84zM29.814 32.822H31.8v1.987h-1.987zM33.789 32.822h1.987v1.987H33.79zM37.764 32.822h1.988v1.987h-1.988zM41.74 32.822h1.987v1.987h-1.988zM45.714 32.822h1.988v1.987h-1.988zM25.839 36.797h7.95v1.987h-7.95zM39.752 36.797h7.95v1.987h-7.95z"/>
        <path fill="#000" fill-rule="nonzero" d="M59.826 34.285l-6.174-23.056a2.98 2.98 0 0 0-3.649-2.1l-12.239 3.282V4.996a4.975 4.975 0 0 0-4.969-4.97H4.969A4.975 4.975 0 0 0 0 4.997v49.69a4.975 4.975 0 0 0 4.969 4.968h27.826a4.975 4.975 0 0 0 4.969-4.969V42.76h14.907a2.982 2.982 0 0 0 2.981-2.982v-1.285l2.07-.558a2.98 2.98 0 0 0 1.803-1.391c.4-.682.509-1.496.301-2.26zm-9.31-23.227a1 1 0 0 1 1.215.696l1.396 5.214a2.937 2.937 0 0 0-.456-.047H28.608l21.908-5.863zM4.97 2.014h27.826a2.982 2.982 0 0 1 2.981 2.982v2.981H1.988V4.996a2.982 2.982 0 0 1 2.98-2.982zm27.826 55.652H4.969a2.982 2.982 0 0 1-2.981-2.98v-2.982h33.788v2.981a2.982 2.982 0 0 1-2.981 2.981zm2.981-7.95H1.988V9.965h33.788v2.98l-14.848 3.976h-3.04V13.94h-1.987V45.74h1.987V42.76h17.888v6.956zm17.889-9.938a.994.994 0 0 1-.994.994H17.888V18.909h34.783c.549 0 .994.445.994.993v19.876zm4.14-4.23c-.131.23-.348.397-.602.468l-1.55.418V26.397l2.251 8.407a.974.974 0 0 1-.1.744z"/>
    </g>
</svg>
