<svg xmlns="http://www.w3.org/2000/svg" width="32" height="51" viewBox="0 0 32 51">
    <g fill="none" fill-rule="evenodd">
        <path fill="#50E3C2" d="M17.416 50.178C9.466 50.178 3 43.786 3 35.929c0-6.795 7.046-14.323 11.366-19.304 1.742-1.765 2.758-2.648 3.05-2.648.292 0 1.013.341 2.165 1.023.434.51.905 1.053 1.4 1.625 4.322 4.981 10.851 12.509 10.851 19.304 0 7.857-6.467 14.249-14.416 14.249z"/>
        <path fill="#616161" fill-rule="nonzero" d="M20.768 13.863a381.24 381.24 0 0 1-.873-1.01 2.445 2.445 0 0 0 1.121-2.05c0-1-.61-1.862-1.48-2.243l2.292-7.552a.776.776 0 0 0-.123-.692.795.795 0 0 0-.636-.316c-.873 0-1.355.317-1.707.549-.28.184-.435.286-.83.286-.394 0-.549-.102-.829-.286C17.351.317 16.87 0 15.996 0c-.874 0-1.355.317-1.706.55-.28.183-.434.285-.827.285-.393 0-.547-.102-.827-.286C12.286.317 11.804 0 10.931 0a.795.795 0 0 0-.636.316.775.775 0 0 0-.123.692l2.292 7.552a2.455 2.455 0 0 0-1.48 2.244c0 .856.446 1.61 1.12 2.05l-.873 1.009C6.76 19.019 0 26.81 0 34.186 0 42.906 7.178 50 16 50s16-7.094 16-15.814c0-7.375-6.76-15.167-11.232-20.323zm-8.612-11.77c.312.165.721.308 1.307.308.873 0 1.354-.318 1.706-.55.28-.184.433-.285.827-.285.394 0 .549.101.829.286.352.232.834.549 1.708.549.588 0 1-.144 1.312-.309l-1.9 6.259h-1.153V5.793A.788.788 0 0 0 16 5.01a.788.788 0 0 0-.792.783v2.558h-1.153l-1.9-6.257zm7.276 8.71c0 .49-.402.888-.897.888h-.004H13.465a.894.894 0 0 1-.897-.887c0-.49.402-.888.897-.888H18.536a.894.894 0 0 1 .896.888zM16 48.435c-7.949 0-14.416-6.392-14.416-14.248 0-6.795 6.53-14.323 10.85-19.304.496-.572.966-1.115 1.4-1.625h4.331c.435.51.905 1.053 1.4 1.625 4.322 4.981 10.851 12.509 10.851 19.304 0 7.856-6.467 14.248-14.416 14.248z"/>
        <path fill="#616161" fill-rule="nonzero" d="M18.54 32.503V26.68c1.06.407 1.838 1.058 1.838 1.849 0 .43.363.778.811.778.448 0 .811-.348.811-.778 0-1.58-1.4-2.91-3.46-3.516V23.78c0-.43-.362-.779-.81-.779-.448 0-.811.349-.811.779v.925a9.7 9.7 0 0 0-1.838 0v-.925c0-.43-.363-.779-.81-.779-.449 0-.812.349-.812.779v1.234C11.4 25.62 10 26.95 10 28.53c0 2.09 1.473 3.19 3.46 3.968v5.823c-1.06-.407-1.838-1.058-1.838-1.849 0-.43-.363-.778-.811-.778-.448 0-.811.348-.811.778 0 1.58 1.4 2.91 3.46 3.516v1.234c0 .43.362.779.81.779.448 0 .811-.349.811-.779v-.925a9.7 9.7 0 0 0 1.838 0v.925c0 .43.363.779.81.779.449 0 .812-.349.812-.779v-1.234C20.6 39.38 22 38.05 22 36.47c0-2.09-1.473-3.19-3.46-3.968zm-5.08-1.715c-1.346-.629-1.838-1.297-1.838-2.26 0-.79.78-1.441 1.838-1.848v4.108zm3.459 7.933a7.27 7.27 0 0 1-.919.06 7.27 7.27 0 0 1-.919-.06v-5.675c.228.068.457.135.69.2.416.119.797.234 1.148.347v5.128zm0-6.767a45.773 45.773 0 0 0-.69-.2 32.665 32.665 0 0 1-1.148-.347v-5.128c.306-.04.615-.06.92-.06.303 0 .612.02.918.06v5.675zm1.622 6.366v-4.108c1.345.629 1.837 1.297 1.837 2.26 0 .79-.779 1.441-1.837 1.848z"/>
    </g>
</svg>
