<svg xmlns="http://www.w3.org/2000/svg" width="21" height="20" viewBox="0 0 21 20"><defs><style>.a{fill:#002063;opacity:0.25;}</style></defs><path class="a" d="M12.263,34.78l.8-6.35-4.377-4.7a.638.638,0,0,1,.332-1.058l6.3-1.257L18.431,15.8a.683.683,0,0,1,1.127,0l3.117,5.622,6.3,1.257a.606.606,0,0,1,.332,1.058l-4.377,4.7.8,6.35a.65.65,0,0,1-.928.661l-5.77-2.712-5.836,2.712A.67.67,0,0,1,12.263,34.78ZM23.67,28.3a.75.75,0,0,1,.2-.529l3.78-4.1-5.5-1.058c-.133-.066-.332-.132-.4-.331l-2.719-4.895L16.309,22.28a.846.846,0,0,1-.464.331l-5.5,1.058,3.78,4.1a.548.548,0,0,1,.2.529l-.663,5.556,5.107-2.381a.728.728,0,0,1,.531,0l5.04,2.381Z" transform="translate(-8.517 -15.5)"/></svg>