<svg xmlns="http://www.w3.org/2000/svg" width="60" height="60" viewBox="0 0 60 60">
    <g fill="none" fill-rule="evenodd">
        <path fill="#C2E565" d="M30 1h28a1 1 0 0 1 1 1v12a1 1 0 0 1-1 1H30a1 1 0 0 1-1-1V2a1 1 0 0 1 1-1z"/>
        <path fill="#FAD944" d="M47 8a3 3 0 1 1-6 0 3 3 0 0 1 6 0z"/>
        <g fill="#A4CD39">
            <path d="M59 6V2a1 1 0 0 0-1-1h-4a5 5 0 0 0 5 5zM59 14v-4a5 5 0 0 0-5 5h4a1 1 0 0 0 1-1zM34 1h-4a1 1 0 0 0-1 1v4a5 5 0 0 0 5-5zM29 10v4a1 1 0 0 0 1 1h4a5 5 0 0 0-5-5z"/>
        </g>
        <path fill="#000" fill-rule="nonzero" d="M44 4a4 4 0 1 0 0 8 4 4 0 0 0 0-8zm0 6a2 2 0 1 1 0-4 2 2 0 0 1 0 4z"/>
        <path fill="#000" fill-rule="nonzero" d="M58 0H30a2 2 0 0 0-2 2v12a2 2 0 0 0 2 2h28a2 2 0 0 0 2-2V2a2 2 0 0 0-2-2zm-4.91 14H34.91A6.009 6.009 0 0 0 30 9.09V6.91A6.007 6.007 0 0 0 34.91 2h18.18A6.007 6.007 0 0 0 58 6.91v2.18A6.009 6.009 0 0 0 53.09 14zM58 4.874A4.018 4.018 0 0 1 55.126 2H58v2.874zM30 2h2.874A4.016 4.016 0 0 1 30 4.874V2zm0 12v-2.874A4.016 4.016 0 0 1 32.874 14H30zm28 0h-2.874A4.016 4.016 0 0 1 58 11.126V14z"/>
        <path fill="#000" d="M38 46h2v2h-2zM42 46h2v2h-2zM46 46h2v2h-2zM46 42h2v2h-2zM46 38h2v2h-2zM46 34h2v2h-2zM46 30h2v2h-2zM46 26h2v2h-2zM46 22h2v2h-2zM46 18h2v2h-2zM24 6h2v2h-2zM20 6h2v2h-2zM16 6h2v2h-2zM16 10h2v2h-2zM16 14h2v2h-2zM16 18h2v2h-2z"/>
        <path fill="#F8C14E" d="M34.15 28.18v5.92H.85v-5.92l16.65-3.947z"/>
        <path fill="#FCE88F" d="M7.633 34.1h19.734v17.267H7.633z"/>
        <path fill="#FF9338" d="M3.933 34.1h3.7v17.267h-3.7zM27.367 34.1h3.7v17.267h-3.7z"/>
        <path fill="#F8C14E" d="M32.3 51.367H3.317v3.7H32.3z"/>
        <path fill="#FF9338" d="M34.15 55.683H.85v3.7h33.3z"/>
        <path fill="#F29010" d="M27.367 34.1h3.7v1.85h-3.7zM3.933 34.1h3.7v1.85h-3.7z"/>
        <path fill="#F5A623" d="M7.633 34.1h19.734v1.85H7.633z"/>
        <path fill="#000" fill-rule="nonzero" d="M34.63 26.92l-16.598-3.895a1 1 0 0 0-.447 0L.986 26.92a.974.974 0 0 0-.753.949v5.842c0 .537.438.973.977.973h1.953v15.58a.975.975 0 0 0-.977.973v2.92H1.21a.975.975 0 0 0-.977.975v3.894c0 .538.438.974.977.974h33.197c.54 0 .976-.436.976-.974v-3.894a.975.975 0 0 0-.976-.974h-.976v-2.921a.975.975 0 0 0-.977-.974V34.684h1.953c.54 0 .976-.436.976-.973v-5.842a.974.974 0 0 0-.752-.949zM5.116 34.684h1.953v15.58H5.115v-15.58zm21.48 0v15.58H9.022v-15.58h17.575zm6.836 23.369H2.186v-1.948h31.245v1.948zM4.139 54.158V52.21h27.339v1.947H4.138zM30.5 50.263H28.55V34.684H30.5v15.58zm2.93-17.526H2.186V28.64l15.622-3.666 15.623 3.666v4.097z"/>
        <path fill="#000" fill-rule="nonzero" d="M14.417 29.167a3.083 3.083 0 1 0 6.167 0 3.083 3.083 0 0 0-6.167 0zm4.11 0a1.028 1.028 0 1 1-2.055 0 1.028 1.028 0 0 1 2.056 0z"/>
        <path fill="#000" d="M16.806 43.401h2.004a.99.99 0 0 1 1.003.977.99.99 0 0 1-1.003.976h-2.004a.99.99 0 0 1-1.002-.976H13.8c0 1.617 1.346 2.929 3.006 2.929v.976h2.004v-.976c1.66 0 3.007-1.312 3.007-2.93 0-1.617-1.346-2.928-3.007-2.928h-2.004a.99.99 0 0 1-1.002-.977.99.99 0 0 1 1.002-.976h2.004a.99.99 0 0 1 1.003.976h2.004c0-1.617-1.346-2.929-3.007-2.929v-.976h-2.004v.976c-1.66 0-3.006 1.312-3.006 2.93 0 1.617 1.346 2.928 3.006 2.928z"/>
    </g>
</svg>
