<svg xmlns="http://www.w3.org/2000/svg" width="60" height="60" viewBox="0 0 60 60">
    <g fill="none" fill-rule="evenodd">
        <path fill="#F8C14E" d="M27.021 9.648l-10.615-2.89-2.609 2.169a7.426 7.426 0 0 1-1.251-4.134V2.415A2.415 2.415 0 0 1 14.958.002a2.415 2.415 0 0 1 2.413 2.413v.965c0 .265.217.482.482.482a.484.484 0 0 0 .483-.482v-.965A2.415 2.415 0 0 1 20.748.002a2.415 2.415 0 0 1 2.413 2.413v.965a.484.484 0 0 0 .965 0v-.965A2.415 2.415 0 0 1 26.54.002a2.415 2.415 0 0 1 2.412 2.413v2.378A7.423 7.423 0 0 1 27.7 8.927l-.679.721z"/>
        <path fill="#F0D0B4" d="M23.562 10H28a1 1 0 0 1 1 1v13a1 1 0 0 1-1 1h-4.033a1 1 0 0 1-1-.963c-.192-5.162-.612-8.293-1.257-9.394-.86-1.464-5.568 3.38-6.324 2.442-.232-.288.524 3.239-.386 4.747-1.438 2.383-4.705 3.233-4.863 2.72-.291-.945-4.272.584-3.811-1.368.446-1.886-3.053-9.99.29-10.994 2.21-.664 8.908-5.02 9.704-5.092 3.002-.27 5.139.549 6.41 2.456a1 1 0 0 0 .832.446z"/>
        <path fill="#C2E565" d="M0 9h6v16H0z"/>
        <path fill="#333" fill-rule="nonzero" d="M11.808 24.124l-1.93-.965H6.755V8.683H0V27.02h6.755v-1.93h2.668l1.93.965h1.193v-1.93h-.738zm-6.983.965H1.93V10.613h2.895V25.09z"/>
        <path fill="#F8C14E" d="M21.238 45.359c-.175 0-.349-.003-.524-.01-6.515-.263-11.91-5.784-12.027-12.307a12.436 12.436 0 0 1 3.545-8.957c2.069-2.128 3.209-4.783 3.209-7.474l4.825-3.098 1.93 1.93v9.646h6.755l1.13-1.162a12.443 12.443 0 0 1 3.695 8.886c0 3.448-1.37 6.661-3.856 9.05a12.438 12.438 0 0 1-8.682 3.496z"/>
        <path fill="#333" d="M26.056 30.88v-.48a3.385 3.385 0 0 0-3.378-3.38h-.482v-1.931h-1.93v1.93h-.483a3.381 3.381 0 0 0-3.377 3.378 3.381 3.381 0 0 0 3.377 3.377h2.895c.798 0 1.448.65 1.448 1.448a1.45 1.45 0 0 1-1.448 1.448h-2.895a1.446 1.446 0 0 1-1.447-1.444v-.487h-1.93v.487a3.378 3.378 0 0 0 3.377 3.374h.483v1.93h1.93V38.6h.482a3.381 3.381 0 0 0 3.378-3.378 3.381 3.381 0 0 0-3.378-3.378h-2.895a1.45 1.45 0 0 1-1.447-1.447c0-.798.65-1.448 1.447-1.448h2.895c.799 0 1.448.654 1.448 1.451v.48h1.93z"/>
        <path fill="#333" fill-rule="nonzero" d="M30.129 13.513a2.877 2.877 0 0 0 .752-1.932 2.9 2.9 0 0 0-2.895-2.898h-3.592l-.671-.84-7.542-2.156-5.915 4.926H5.79v1.93h5.175l5.667-4.72L22.6 9.53l2.03 2.537c.269.336.388.756.334 1.183a1.562 1.562 0 0 1-.619 1.062 1.584 1.584 0 0 1-2.06-.146l-1.947-1.948-5.5 4.4 1.206 1.507 4.15-3.32.726.726c.107.106.225.193.342.283.07.704.327 1.118.722 1.556a2.874 2.874 0 0 0-.753 1.93c0 .744.29 1.418.753 1.93a2.867 2.867 0 0 0-.753 1.929 2.897 2.897 0 0 0 2.895 2.895h3.86a2.897 2.897 0 0 0 2.895-2.893c0-.744-.29-1.416-.752-1.93a2.87 2.87 0 0 0 .752-1.93c0-.744-.29-1.416-.752-1.93a2.872 2.872 0 0 0 .752-1.93c0-.743-.29-1.415-.752-1.928zm-2.143 10.611h-3.86a.967.967 0 0 1-.965-.965c0-.532.433-.965.965-.965h3.86c.532 0 .965.433.965.965a.966.966 0 0 1-.965.965zm0-3.86h-3.86a.967.967 0 0 1-.965-.965c0-.532.433-.965.965-.965h3.86c.532 0 .965.433.965.965a.966.966 0 0 1-.965.965zm0-3.86h-3.575a3.465 3.465 0 0 0 1.092-.546 3.468 3.468 0 0 0 1.085-1.384h1.398c.532 0 .965.433.965.965a.967.967 0 0 1-.965.965zm0-3.86h-1.132a3.472 3.472 0 0 0-.717-1.682l-.199-.248h2.048c.532 0 .965.433.965.965a.966.966 0 0 1-.965.965z"/>
        <path fill="#A28240" d="M22.743 49l4.57 1.797c-.905-2.336-.464-3.775 1.323-4.316.773-.234 2.492 4.316 3.038 4.316 1.144 0 3.16.155 5.678-.683.936-.312-5.381-2.999-4.65-4.114 1.024-1.562 6.847.314 12.755 3 1.634.743 4.212.743 7.734 0l.616 6.72-4.8 1.493c-8.155.173-14.945-.434-20.371-1.821-5.427-1.387-7.737-2.518-6.932-3.392l1.039-3z"/>
        <path fill="#75DBE9" d="M55 46h4v13h-4z"/>
        <path fill="#333" fill-rule="nonzero" d="M53.077 45.355v2.895h-6.463l-2.652-1.768-8.133-2.884a2.954 2.954 0 0 0-2.336.154 2.956 2.956 0 0 0-1.505 1.794 2.988 2.988 0 0 0 1.455 3.498l2.089 1.11-3.038.009-1.249-3.123a2.674 2.674 0 0 0-2.493-1.685c-.861 0-1.676.419-2.179 1.117a2.69 2.69 0 0 0-.364 2.423l.293.866-2.117-1.157a2.775 2.775 0 0 0-3.852 1.29 2.76 2.76 0 0 0 1.298 3.626l4.764 2.351 9.887 2.011 12.83.018 3.765-.752v2.683h6.756V45.355h-6.756zm-24.936 2.244c.324-.452 1.106-.356 1.311.159l.965 2.412-1.739.005-.639-1.897a.746.746 0 0 1 .102-.68zm20.98 8.371H36.767l-9.432-1.886-4.65-2.294a.838.838 0 0 1-.394-1.101.827.827 0 0 1 .5-.45.819.819 0 0 1 .67.06l3.314 1.811h9.16l3.808-1.904-5.394-2.867a1.055 1.055 0 0 1-.514-1.233 1.04 1.04 0 0 1 .531-.633c.258-.133.551-.15.824-.055l7.804 2.737 3.036 2.025h7.047v5l-3.956.79zm8.781 1.93h-2.895V47.285h2.895V57.9z"/>
    </g>
</svg>
