<svg xmlns="http://www.w3.org/2000/svg" width="48" height="48" viewBox="0 0 48 48"><defs><style>.a,.c{fill:#ff0045;}.a{opacity:0.16;}.b{fill:#fff;stroke:#707070;opacity:0;}.d{stroke:none;}.e{fill:none;}</style></defs><path class="a" d="M0,24A24,24,0,1,0,24,0,24,24,0,0,0,0,24Z"/><g transform="translate(-1280 -535)"><g class="b" transform="translate(1292 547)"><rect class="d" width="24" height="24"/><rect class="e" x="0.5" y="0.5" width="23" height="23"/></g><g transform="translate(1296 551)"><path class="c" d="M4,17a1.006,1.006,0,0,1-1-.917L2.08,5H1A1,1,0,0,1,1,3H5V1A1,1,0,0,1,6,0h4a1,1,0,0,1,1,1V3h4a1,1,0,0,1,0,2H13.92L13,16.083A1,1,0,0,1,12,17Zm.921-2h6.159l.834-10H4.086ZM9,3V2H7V3Z"/></g></g></svg>